<?xml version="1.0" encoding="UTF-8"?>
<svg version="1.1" xmlns="http://www.w3.org/2000/svg" width="2931" height="632">
<path d="M0 0 C32.00258682 27.94454515 52.14971879 66.61631289 55.05273438 109.18457031 C56.69739204 138.14674266 52.04606754 166.34841745 39.18164062 192.45458984 C38.62605469 193.58251953 38.07046875 194.71044922 37.49804688 195.87255859 C21.93038982 225.96523515 -2.75363449 250.09967671 -32.81835938 265.45458984 C-33.45128906 265.7779834 -34.08421875 266.10137695 -34.73632812 266.43457031 C-71.9566227 285.16942477 -116.35984722 288.03817171 -155.90429688 275.17724609 C-183.97345822 265.58685717 -208.53184631 248.95552175 -227.81835938 226.45458984 C-228.14835937 268.36458984 -228.47835938 310.27458984 -228.81835938 353.45458984 C-243.33835937 353.45458984 -257.85835937 353.45458984 -272.81835938 353.45458984 C-272.81835938 231.02458984 -272.81835938 108.59458984 -272.81835938 -17.54541016 C-258.29835938 -17.54541016 -243.77835938 -17.54541016 -228.81835938 -17.54541016 C-228.48835938 -6.32541016 -228.15835937 4.89458984 -227.81835938 16.45458984 C-224.99273438 13.54646484 -222.16710938 10.63833984 -219.25585938 7.64208984 C-160.18161226 -51.9434254 -63.44727594 -53.92336959 0 0 Z M-193.94335938 45.70458984 C-215.52634974 70.92213783 -223.8623574 101.62287163 -221.81835938 134.45458984 C-219.36322808 157.31013101 -210.01720581 179.19388439 -194.81835938 196.45458984 C-193.7896875 197.68048828 -193.7896875 197.68048828 -192.74023438 198.93115234 C-172.71711532 222.19542376 -143.89761114 235.941339 -113.47851562 238.29443359 C-80.82460158 240.26038143 -50.99802063 228.36317848 -26.56835938 206.95458984 C-5.45379572 187.38663435 8.42862721 160.36533993 10.38647461 131.42700195 C11.50955818 96.13131439 1.19945134 67.17565595 -22.24804688 40.71240234 C-28.70869694 33.91283293 -36.02596643 28.60021371 -43.81835938 23.45458984 C-44.77355469 22.81521484 -45.72875 22.17583984 -46.71289062 21.51708984 C-95.31636359 -8.93655475 -156.35263859 5.62790957 -193.94335938 45.70458984 Z " fill="#0D7F80" transform="translate(1639.818359375,194.54541015625)"/>
<path d="M0 0 C31.43693022 28.55453117 53.05076005 67.6227531 56.14453125 110.484375 C57.9521802 156.97484642 45.26111086 201.65501624 13.27270508 236.50048828 C9.94577353 240.0433087 6.49852254 243.45422887 3.02734375 246.85546875 C-11.705347 261.14272437 -11.705347 261.14272437 -23.73046875 277.69921875 C-24.08737793 278.2921875 -24.44428711 278.88515625 -24.81201172 279.49609375 C-31.33721127 290.50538037 -40.05546965 306.56824775 -37.73046875 319.69921875 C-35.60687491 322.32421084 -35.60687491 322.32421084 -32.73046875 324.69921875 C-22.99706199 336.1359717 -21.8145686 348.10587631 -22.73046875 362.69921875 C-24.15941706 373.42844077 -28.54193448 381.46765326 -36.82421875 388.41015625 C-39.33418174 390.10746729 -42.01525645 391.36140144 -44.73046875 392.69921875 C-44.71999512 393.50029053 -44.70952148 394.3013623 -44.69873047 395.12670898 C-44.65686063 398.79667964 -44.63104449 402.46659981 -44.60546875 406.13671875 C-44.58871094 407.39677734 -44.57195312 408.65683594 -44.5546875 409.95507812 C-44.48905673 422.52337075 -45.95958561 432.08560767 -54.55078125 441.74609375 C-61.80396386 448.61752991 -70.27441441 451.28574365 -80.10546875 451.44921875 C-81.04390625 451.47741699 -81.98234375 451.50561523 -82.94921875 451.53466797 C-86.54287611 451.62351607 -90.13596634 451.66731062 -93.73046875 451.69921875 C-94.92283142 451.71051819 -94.92283142 451.71051819 -96.13928223 451.7220459 C-110.0038 451.84581869 -123.86607845 451.8306048 -137.73046875 451.69921875 C-138.43385376 451.69297485 -139.13723877 451.68673096 -139.86193848 451.68029785 C-143.69474564 451.64258236 -147.52424219 451.56433974 -151.35546875 451.44921875 C-152.19851563 451.4352002 -153.0415625 451.42118164 -153.91015625 451.40673828 C-162.7955749 451.03712546 -170.44711396 447.79729909 -176.91015625 441.6875 C-182.66362167 435.40313541 -186.6302415 428.89707555 -186.79882812 420.15405273 C-186.72470703 418.93016846 -186.65058594 417.70628418 -186.57421875 416.4453125 C-186.51974002 415.08277596 -186.46773007 413.72013886 -186.41796875 412.35742188 C-186.33135076 410.23946434 -186.22979788 408.12685621 -186.0859375 406.01196289 C-185.79053141 401.45796146 -185.66849115 397.17803744 -186.73046875 392.69921875 C-189.67334648 389.69328422 -192.89958176 388.32151284 -196.73046875 386.69921875 C-203.11928475 381.34303615 -207.30909746 374.93428868 -208.73046875 366.69921875 C-209.05765989 362.84376779 -209.17880137 359.00500604 -209.23046875 355.13671875 C-209.25850586 353.68241455 -209.25850586 353.68241455 -209.28710938 352.19873047 C-209.20980279 343.43483924 -206.74441945 336.04539775 -201.73046875 328.82421875 C-201.22128906 328.086875 -200.71210938 327.34953125 -200.1875 326.58984375 C-198.73046875 324.69921875 -198.73046875 324.69921875 -196.41796875 322.57421875 C-193.87163538 319.74495945 -193.96878041 317.47496911 -193.73046875 313.69921875 C-194.21411418 310.52014802 -195.08609024 307.51568197 -196.04296875 304.44921875 C-196.31149658 303.58022949 -196.58002441 302.71124023 -196.85668945 301.81591797 C-204.11546686 279.56317196 -217.91498523 261.32622342 -235.66796875 246.32421875 C-267.28148246 219.02456536 -284.11212588 178.38775667 -287.54516602 137.3894043 C-290.61755991 92.78504558 -277.46710882 49.9973464 -248.41796875 15.9921875 C-246.22975403 13.51904899 -243.99801231 11.09967339 -241.73046875 8.69921875 C-241.03566406 7.9515625 -240.34085938 7.20390625 -239.625 6.43359375 C-213.63276631 -20.64756776 -177.96501195 -33.96611666 -141.73046875 -40.30078125 C-140.60294189 -40.49994141 -140.60294189 -40.49994141 -139.45263672 -40.703125 C-88.72239286 -49.22398691 -38.09884962 -33.97418784 0 0 Z M-221.73046875 21.69921875 C-222.54128906 22.44558594 -223.35210937 23.19195312 -224.1875 23.9609375 C-251.46777805 49.95238352 -264.94683226 87.55290732 -265.98046875 124.69921875 C-264.89371465 163.7544443 -249.87084907 198.70463476 -222.73046875 226.69921875 C-221.86035156 227.59769531 -220.99023438 228.49617187 -220.09375 229.421875 C-216.42897821 233.14276887 -212.74635073 236.73435698 -208.73046875 240.07421875 C-190.88367017 255.56051892 -180.48140246 277.83956716 -173.828125 300.0390625 C-171.69188967 307.52722335 -171.69188967 307.52722335 -168.73046875 314.69921875 C-167.74046875 314.69921875 -166.75046875 314.69921875 -165.73046875 314.69921875 C-165.49695481 287.55284407 -165.32056804 260.40661971 -165.21234703 233.25944328 C-165.16076421 220.6547172 -165.09042945 208.05061483 -164.97607422 195.44628906 C-164.87645909 184.46140099 -164.81190029 173.47696454 -164.7895838 162.49163735 C-164.77653651 156.67370525 -164.74583854 150.85706523 -164.67316818 145.03954697 C-164.6053291 139.56447195 -164.58434413 134.0912219 -164.59939194 128.61576653 C-164.59663896 126.60571436 -164.57671998 124.59560172 -164.538414 122.5859127 C-163.87525014 112.22525915 -163.87525014 112.22525915 -167.92537308 103.29669571 C-170.53415017 101.66360042 -170.53415017 101.66360042 -173.28380775 100.72831917 C-176.97881007 99.17414863 -178.23352528 96.63778725 -179.890625 93.1171875 C-182.61727962 85.26695862 -182.09893622 78.27499384 -178.73046875 70.69921875 C-175.80027818 65.54650627 -171.38480906 62.26937877 -165.73046875 60.69921875 C-158.7003691 59.89531004 -151.63099044 59.5987421 -145.41015625 63.36328125 C-140.79917577 67.03061921 -137.55365629 71.06315499 -135.73046875 76.69921875 C-134.79800162 85.58793142 -135.92148039 92.35227413 -141.54296875 99.44921875 C-144.40862298 102.88479301 -146.24663712 103.45730293 -150.73046875 105.69921875 C-150.73046875 174.66921875 -150.73046875 243.63921875 -150.73046875 314.69921875 C-141.82046875 314.69921875 -132.91046875 314.69921875 -123.73046875 314.69921875 C-123.54989238 296.27105274 -123.40252154 277.84360274 -123.31597137 259.4147768 C-123.27471678 250.85798284 -123.2184723 242.30177748 -123.12695312 233.74536133 C-123.04722404 226.28768388 -122.99560545 218.83043265 -122.97776079 211.37234086 C-122.96732884 207.42292054 -122.94281126 203.47471957 -122.8846283 199.52569008 C-122.83029681 195.80792707 -122.81358016 192.09188444 -122.8256073 188.37376213 C-122.822359 186.35989299 -122.77931889 184.34621111 -122.73510742 182.33282471 C-122.56070216 176.0645153 -122.56070216 176.0645153 -125.47145081 170.85600853 C-127.55255316 169.49719955 -127.55255316 169.49719955 -129.73163605 168.60161114 C-133.92754262 166.70732847 -136.10082553 163.01847122 -138.04296875 158.94921875 C-139.92869001 150.03490006 -138.86510147 142.62507017 -133.98046875 134.94921875 C-128.76379539 129.73254539 -122.88828771 127.60024396 -115.60546875 127.32421875 C-109.41085486 127.41519439 -104.68320691 128.94137196 -99.73046875 132.69921875 C-94.38626421 138.80377759 -92.38816208 144.31851187 -92.51953125 152.33203125 C-93.13969421 159.29163779 -96.44803133 165.15333034 -101.73046875 169.69921875 C-103.71046875 170.68921875 -105.69046875 171.67921875 -107.73046875 172.69921875 C-107.73046875 219.55921875 -107.73046875 266.41921875 -107.73046875 314.69921875 C-98.82046875 314.69921875 -89.91046875 314.69921875 -80.73046875 314.69921875 C-80.50445843 303.06838014 -80.32104169 291.4390015 -80.21234703 279.80646324 C-80.16017581 274.4048131 -80.08943216 269.00474397 -79.97607422 263.60400391 C-79.86733853 258.39079928 -79.80761205 253.17911394 -79.78169632 247.96486282 C-79.76323168 245.97674253 -79.7271708 243.98870465 -79.67316818 242.00123215 C-78.87607198 231.40019019 -78.87607198 231.40019019 -82.93536377 222.21612549 C-85.49589651 220.69462434 -87.94531351 219.72219735 -90.73046875 218.69921875 C-95.58502564 213.11647832 -97.06024975 206.93134593 -96.60546875 199.69921875 C-95.75644853 193.3462054 -93.6548592 188.12223016 -88.79296875 183.82421875 C-81.77231017 178.95274137 -75.08440125 178.95181143 -66.73046875 179.69921875 C-60.52452504 181.33133308 -56.19428758 185.39317781 -52.73046875 190.69921875 C-49.67124029 196.94339739 -49.57936001 204.43942713 -51.3828125 211.11328125 C-54.32126753 217.64598385 -59.4539975 221.56098313 -65.73046875 224.69921875 C-65.73046875 254.06921875 -65.73046875 283.43921875 -65.73046875 313.69921875 C-61.70029071 312.19843848 -61.70029071 312.19843848 -60.72900391 309.58300781 C-60.37781494 308.2870166 -60.37781494 308.2870166 -60.01953125 306.96484375 C-59.7477002 306.00513672 -59.47586914 305.04542969 -59.19580078 304.05664062 C-58.91849121 303.03119141 -58.64118164 302.00574219 -58.35546875 300.94921875 C-52.8231237 281.77357324 -44.88507574 264.8578479 -31.73046875 249.69921875 C-30.77140625 248.55839844 -30.77140625 248.55839844 -29.79296875 247.39453125 C-25.11733074 241.99275249 -20.04149436 237.15473635 -14.79296875 232.32421875 C12.9392652 206.66437512 31.52920732 170.22912606 33.39404297 132.15722656 C34.58091474 91.92153647 21.85680308 55.54635186 -5.63110352 25.94067383 C-31.87602485 -1.73085203 -67.65947916 -18.36671944 -105.88671875 -19.51953125 C-149.53093719 -20.34780195 -189.60963108 -8.66299013 -221.73046875 21.69921875 Z M-167.73046875 77.69921875 C-169.30502614 80.84833354 -169.07845993 83.21930691 -168.73046875 86.69921875 C-166.83484222 89.89808852 -165.38419508 92.06081926 -161.828125 93.43359375 C-157.90581313 94.18643672 -156.02376795 93.84043688 -152.35546875 92.07421875 C-149.59062422 89.57269275 -148.50572124 88.31706368 -147.73046875 84.69921875 C-147.81674298 80.55805595 -148.42703467 79.04933499 -151.16796875 75.88671875 C-153.91233497 73.5439671 -154.95175299 72.80540726 -158.48046875 72.32421875 C-163.00585455 72.84637865 -164.49757905 74.54151253 -167.73046875 77.69921875 Z M-122.73046875 142.69921875 C-125.6192454 145.29911773 -125.72941817 146.68976355 -126.16796875 150.63671875 C-126.02306603 154.72450062 -124.69362319 156.82321591 -121.73046875 159.69921875 C-118.52873621 161.30008502 -115.20469816 161.19838964 -111.73046875 160.69921875 C-108.92043415 158.90557964 -107.22106407 157.6804094 -105.73046875 154.69921875 C-105.25433299 149.0045725 -105.25433299 149.0045725 -107.29296875 143.82421875 C-112.55141319 139.23993385 -116.98392936 138.78112371 -122.73046875 142.69921875 Z M-82.73046875 196.69921875 C-84.30502614 199.84833354 -84.07845993 202.21930691 -83.73046875 205.69921875 C-81.83484222 208.89808852 -80.38419508 211.06081926 -76.828125 212.43359375 C-72.90581313 213.18643672 -71.02376795 212.84043688 -67.35546875 211.07421875 C-64.59062422 208.57269275 -63.50572124 207.31706368 -62.73046875 203.69921875 C-62.81674298 199.55805595 -63.42703467 198.04933499 -66.16796875 194.88671875 C-68.91233497 192.5439671 -69.95175299 191.80540726 -73.48046875 191.32421875 C-78.00585455 191.84637865 -79.49757905 193.54151253 -82.73046875 196.69921875 Z M-184.54296875 342.57421875 C-187.61666398 348.07451548 -187.4962911 355.12913517 -186.19921875 361.17578125 C-185.16682236 364.62084312 -184.31680077 367.09397279 -181.79296875 369.69921875 C-178.10677869 371.48646241 -174.79791768 371.8251332 -170.72743225 371.83293152 C-169.21547523 371.83932899 -169.21547523 371.83932899 -167.67297363 371.84585571 C-166.57312134 371.84540253 -165.47326904 371.84494934 -164.34008789 371.84448242 C-163.17710678 371.84784103 -162.01412567 371.85119965 -160.81590271 371.85466003 C-156.96579932 371.86417061 -153.11573941 371.86611313 -149.265625 371.8671875 C-147.26825384 371.86958804 -145.27088266 371.87199024 -143.27351183 371.87464792 C-136.99361729 371.88278613 -130.71373709 371.8852327 -124.43383789 371.88452148 C-117.95933076 371.88392058 -111.48490691 371.8944763 -105.01042086 371.91026515 C-99.44767142 371.92334638 -93.8849492 371.92870515 -88.3221845 371.92806607 C-85.00154508 371.92781129 -81.68099639 371.93157235 -78.36036873 371.94124413 C-74.65692315 371.95102175 -70.95369305 371.94817475 -67.25024414 371.94213867 C-66.15241608 371.94775818 -65.05458801 371.95337769 -63.92349243 371.95916748 C-62.91270126 371.95497299 -61.9019101 371.9507785 -60.86048889 371.94645691 C-59.98537187 371.94700168 -59.11025484 371.94754644 -58.20861912 371.94810772 C-53.16509367 371.44156951 -49.98237199 369.531819 -46.73046875 365.69921875 C-45.51699121 362.05878612 -45.50797155 358.67866689 -45.48046875 354.88671875 C-45.45984375 354.18740234 -45.43921875 353.48808594 -45.41796875 352.76757812 C-45.38209642 347.97413803 -45.9829641 344.65308573 -48.73046875 340.69921875 C-54.32241241 336.83837092 -59.98493342 337.27529974 -66.515625 337.31103516 C-67.69679901 337.3057782 -68.87797302 337.30052124 -70.09494019 337.29510498 C-73.32228317 337.28418844 -76.54925506 337.28671223 -79.77659225 337.29624224 C-83.16104638 337.30386089 -86.5454765 337.29678712 -89.92993164 337.29208374 C-95.61251243 337.28663258 -101.29497608 337.29380091 -106.97753906 337.30810547 C-113.5384704 337.32443086 -120.09912201 337.31914189 -126.66004658 337.30262625 C-132.30270175 337.28899305 -137.94527293 337.28710065 -143.58793926 337.29494226 C-146.95386525 337.29960874 -150.31965995 337.30027202 -153.68557739 337.29033279 C-157.43901475 337.28271357 -161.19191513 337.29433021 -164.9453125 337.31103516 C-166.05510468 337.30496246 -167.16489685 337.29888977 -168.30831909 337.29263306 C-174.77384501 337.34593657 -179.8052201 337.67309946 -184.54296875 342.57421875 Z M-162.73046875 399.69921875 C-166.02950749 405.5747402 -165.69458372 413.56126545 -164.1953125 419.99609375 C-162.7995463 423.56559419 -161.0906459 425.86639485 -157.73046875 427.69921875 C-154.0135026 428.94583556 -150.27131596 428.85404282 -146.39501953 428.86035156 C-145.29669296 428.86779892 -145.29669296 428.86779892 -144.17617798 428.87539673 C-141.75936943 428.88997448 -139.3426265 428.89681263 -136.92578125 428.90234375 C-135.24193318 428.90809834 -133.55808511 428.91385604 -131.87423706 428.9196167 C-128.34535416 428.93011387 -124.81649396 428.93596509 -121.28759766 428.93945312 C-116.77277207 428.94493845 -112.25824796 428.96897259 -107.74351692 428.99742508 C-104.26560598 429.01607604 -100.78776736 429.02125834 -97.30981064 429.022789 C-95.64568303 429.02580996 -93.98155653 429.0338197 -92.31747818 429.04697418 C-89.9863228 429.06408823 -87.65590028 429.06214182 -85.32470703 429.05566406 C-84.30050659 429.06948624 -84.30050659 429.06948624 -83.25561523 429.08358765 C-78.69268078 429.04400208 -75.61626849 428.06595581 -71.73046875 425.69921875 C-67.32731242 421.1770582 -66.7306805 417.46477922 -66.48046875 411.38671875 C-66.55587193 406.86252817 -67.14237429 402.49997382 -69.73046875 398.69921875 C-74.34547801 394.97203296 -77.96849921 394.11381457 -83.75195312 394.16577148 C-84.92386955 394.15284813 -84.92386955 394.15284813 -86.11946106 394.1396637 C-88.68805584 394.11706123 -91.2555546 394.12373111 -93.82421875 394.1328125 C-95.61731285 394.12757468 -97.41040419 394.12129762 -99.20349121 394.11402893 C-102.95594273 394.10363557 -106.70801477 394.10817129 -110.46044922 394.12280273 C-115.26250515 394.1399969 -120.06336524 394.11648241 -124.86528778 394.08131313 C-128.56630336 394.05932486 -132.26703336 394.0607839 -135.96809387 394.06907845 C-137.73827934 394.06989703 -139.50848597 394.0630513 -141.27861023 394.04830742 C-143.75614398 394.03083238 -146.23153573 394.04542561 -148.70898438 394.06811523 C-149.43539627 394.05642303 -150.16180817 394.04473083 -150.91023254 394.03268433 C-156.58731223 394.13815352 -158.88807269 395.81508614 -162.73046875 399.69921875 Z " fill="#0D7F80" transform="translate(419.73046875,180.30078125)"/>
<path d="M0 0 C1.58126442 -0.00643789 3.16252767 -0.01316697 4.74378967 -0.02017212 C8.04788982 -0.03210245 11.35188572 -0.03585719 14.65600586 -0.03466797 C18.87013769 -0.03446467 23.08359603 -0.06179695 27.29756832 -0.09621239 C30.56029782 -0.11854736 33.82286666 -0.12250355 37.08566475 -0.12144852 C38.6384673 -0.12379339 40.19127503 -0.13255351 41.74400139 -0.14811325 C51.8287259 -0.23974117 60.54687811 -0.05478466 68.09765625 7.3359375 C76.17809409 18.03566687 75.43817544 31.3611534 75.53515625 44.0859375 C75.56336906 45.95836028 75.59330373 47.83075795 75.625 49.703125 C75.69822935 54.24735001 75.74818708 58.79127879 75.78515625 63.3359375 C76.94112305 63.81836914 78.09708984 64.30080078 79.28808594 64.79785156 C101.83139283 74.20859071 124.36069831 83.64467429 146.78515625 93.3359375 C152.68634994 88.33583043 158.39085349 83.34416405 163.22265625 77.2734375 C169.38992648 70.20363991 177.09045765 65.03202289 186.4921875 63.8828125 C196.8115306 63.33826264 204.7348617 65.21925331 212.78164673 72.02435303 C217.42185132 76.24812814 221.82823111 80.69830727 226.20458984 85.19287109 C228.52985591 87.58049502 230.87581924 89.9460747 233.2265625 92.30859375 C257.60701087 116.93793127 257.60701087 116.93793127 258.28515625 131.8359375 C257.53163622 148.8995202 245.13646514 159.29856242 233.46484375 170.2265625 C232.59085938 171.0721875 231.716875 171.9178125 230.81640625 172.7890625 C230.01783203 173.54348633 229.21925781 174.29791016 228.39648438 175.07519531 C226.5209844 177.21564444 226.5209844 177.21564444 226.89648438 179.85302734 C227.75873822 182.26212668 228.71768014 184.38118319 229.97265625 186.609375 C230.41971924 187.42212891 230.86678223 188.23488281 231.32739258 189.07226562 C231.80845459 189.94302734 232.2895166 190.81378906 232.78515625 191.7109375 C242.0032164 208.89750856 248.37526812 226.81095076 253.26367188 245.65966797 C253.64828367 247.35411105 253.64828367 247.35411105 254.78515625 248.3359375 C257.05767136 248.45865294 259.3337605 248.51584842 261.609375 248.546875 C263.04623399 248.57501313 264.48308275 248.60367774 265.91992188 248.6328125 C268.17487518 248.67354276 270.4296516 248.71042492 272.68481445 248.73730469 C287.0837705 248.92365735 301.87468238 249.2095711 312.55859375 260.15234375 C319.98271964 269.11561769 320.25215761 279.48295116 320.25390625 290.671875 C320.26102904 292.0413137 320.26873102 293.41074949 320.27697754 294.78018188 C320.29034149 297.63609127 320.29202795 300.49172458 320.28613281 303.34765625 C320.28024328 306.97428529 320.31083284 310.59957256 320.35124969 314.22594261 C320.37733098 317.0504751 320.37998592 319.87469311 320.37635803 322.69932938 C320.37883249 324.67547238 320.40337231 326.6515493 320.42858887 328.62753296 C320.35283877 338.62498851 318.38897282 347.61576614 311.59765625 355.2734375 C303.76352979 362.28472354 295.21419655 364.43102481 284.96484375 364.58203125 C283.44530615 364.61494247 281.92577504 364.64815454 280.40625 364.68164062 C278.02526914 364.72918142 275.64431958 364.7736972 273.26318359 364.81274414 C270.95514484 364.85240688 268.6476069 364.90392913 266.33984375 364.95703125 C265.2710347 364.96965248 265.2710347 364.96965248 264.18063354 364.98252869 C260.51698806 365.07430449 258.91597579 365.24872447 255.78515625 367.3359375 C254.77151362 370.1286874 253.90669368 372.85922198 253.09765625 375.7109375 C247.42236062 394.55385172 239.93839398 413.48708279 229.36328125 430.16015625 C227.45513054 433.07298683 227.45513054 433.07298683 228.40039062 435.24707031 C230.12028319 437.84146397 232.10449214 439.78975852 234.36328125 441.93359375 C235.27722656 442.81853516 236.19117188 443.70347656 237.1328125 444.61523438 C239.04358429 446.45276314 240.96471816 448.27777 242.890625 450.09960938 C251.40140253 458.37762371 257.84397157 466.83541404 258.03515625 479.0234375 C257.8364272 493.91005012 248.9950212 502.47627292 238.84765625 512.4609375 C237.70780273 513.59982422 237.70780273 513.59982422 236.54492188 514.76171875 C232.35097192 518.9234351 228.05100795 522.88744978 223.57397461 526.74121094 C221.06485775 528.9780816 218.81748211 531.43309495 216.53515625 533.8984375 C209.17401857 541.36224097 200.32298278 546.3518157 189.72265625 546.6484375 C172.67929051 546.3764689 162.57649175 533.35576042 151.29467773 522.19555664 C150.14884982 521.06654277 148.99765417 519.94295446 147.84155273 518.82446289 C146.15048561 517.18778612 144.47613037 515.53558961 142.8046875 513.87890625 C142.28405228 513.3809404 141.76341705 512.88297455 141.227005 512.36991882 C139.80786133 510.94213867 139.80786133 510.94213867 137.78515625 508.3359375 C137.80987548 503.62101238 141.96839349 500.63910954 145.09765625 497.5234375 C145.67966797 496.91306641 146.26167969 496.30269531 146.86132812 495.67382812 C147.43044922 495.10212891 147.99957031 494.53042969 148.5859375 493.94140625 C149.10325439 493.41699951 149.62057129 492.89259277 150.15356445 492.35229492 C151.78515625 491.3359375 151.78515625 491.3359375 153.84545898 491.53808594 C156.86028848 492.77816936 158.41273531 494.94974378 160.53515625 497.3984375 C165.28172968 502.7624649 170.21966961 507.89716914 175.28515625 512.9609375 C175.97963867 513.65968994 176.67412109 514.35844238 177.38964844 515.07836914 C178.04610352 515.73313232 178.70255859 516.38789551 179.37890625 517.0625 C179.96349609 517.64596191 180.54808594 518.22942383 181.15039062 518.83056641 C183.64507656 521.12779363 185.50878433 522.27953507 188.84765625 522.9609375 C198.97781184 521.3529763 207.02704726 510.32035238 213.97265625 503.2109375 C224.49244281 492.48523171 224.49244281 492.48523171 228.8359375 488.84375 C232.1533233 486.0228736 233.58758235 484.45552293 234.34765625 480.1484375 C232.90370619 470.3616649 220.40117241 461.90097045 213.45361328 455.1003418 C211.919056 453.59607496 210.3908584 452.08556881 208.86328125 450.57421875 C207.50831543 449.2445105 207.50831543 449.2445105 206.12597656 447.88793945 C201.92765412 443.31085722 200.12509279 439.89832597 200.35302734 433.72753906 C201.15634279 429.2816192 203.617416 425.91148765 206.09765625 422.2109375 C220.15386704 399.92374409 229.76908415 375.60504752 235.73828125 349.9375 C237.10561482 346.53957404 239.02403804 344.70380554 241.78515625 342.3359375 C244.59546081 341.39916931 246.37252775 341.19704815 249.28491211 341.16235352 C250.19272934 341.14886368 251.10054657 341.13537384 252.03587341 341.12147522 C253.01403519 341.11103683 253.99219696 341.10059845 255 341.08984375 C257.06836371 341.05691181 259.13672298 341.02370005 261.20507812 340.99023438 C264.4683127 340.94277719 267.73152842 340.89833093 270.99487305 340.85913086 C274.14260411 340.81944259 277.28996983 340.76789705 280.4375 340.71484375 C281.41363754 340.7064296 282.38977509 340.69801544 283.39549255 340.68934631 C284.30646194 340.67270432 285.21743134 340.65606232 286.15600586 340.63891602 C286.95525986 340.62860855 287.75451385 340.61830109 288.57798767 340.60768127 C291.15054046 340.29095186 292.65954478 339.83381131 294.78515625 338.3359375 C296.65698774 334.85837832 297.04013151 331.89285274 297.05981445 327.98242188 C297.06934647 326.93783813 297.07887848 325.89325439 297.08869934 324.8170166 C297.08778793 323.699198 297.08687653 322.58137939 297.0859375 321.4296875 C297.09022263 320.27223022 297.09450775 319.11477295 297.09892273 317.92224121 C297.10465919 315.47795261 297.10517134 313.03364694 297.10083008 310.58935547 C297.09766784 306.84963922 297.12114687 303.11071237 297.14648438 299.37109375 C297.14875719 296.99479266 297.14946095 294.61848945 297.1484375 292.2421875 C297.16225212 290.56545959 297.16225212 290.56545959 297.17634583 288.8548584 C297.17011703 287.81027466 297.16388824 286.76569092 297.1574707 285.68945312 C297.15810013 284.7740979 297.15872955 283.85874268 297.15937805 282.91564941 C296.69734933 279.73063723 295.71766101 277.89929031 293.78515625 275.3359375 C290.87722824 273.3422873 288.5004303 273.0827163 285.02001953 273.06469727 C284.07869171 273.05451065 283.13736389 273.04432404 282.16751099 273.03382874 C280.65180008 273.03061867 280.65180008 273.03061867 279.10546875 273.02734375 C276.95833061 273.00218416 274.81119526 272.97678612 272.6640625 272.95117188 C269.28467527 272.92243308 265.90533635 272.89841073 262.52587891 272.87963867 C259.26048843 272.85795835 255.99566315 272.81851696 252.73046875 272.77734375 C251.72404327 272.77722794 250.7176178 272.77711212 249.68069458 272.7769928 C244.32383007 272.70159011 240.37772792 272.41925026 235.78515625 269.3359375 C232.20884001 264.171966 231.4099717 257.81569046 230.09765625 251.7734375 C225.53814734 231.90203677 217.85697103 213.85508703 207.87109375 196.1484375 C207.3706958 195.25648682 206.87029785 194.36453613 206.35473633 193.44555664 C205.37387311 191.7064431 204.38204824 189.97345164 203.37768555 188.24780273 C200.76823651 183.64603867 198.67744597 179.76580287 198.78515625 174.3359375 C201.55316117 168.59355264 205.15777345 164.5716773 209.703125 160.16015625 C210.36097488 159.50892288 211.01882477 158.85768951 211.6966095 158.1867218 C213.78157994 156.12500043 215.87651004 154.07379002 217.97265625 152.0234375 C220.07768951 149.95347612 222.18054825 147.88136901 224.28083801 145.80659485 C225.58423116 144.52017612 226.89069115 143.23685586 228.20048523 141.95695496 C229.08193962 141.09013847 229.08193962 141.09013847 229.98120117 140.20581055 C230.49986252 139.69841843 231.01852386 139.19102631 231.55290222 138.66825867 C233.78975648 136.24975712 234.4276897 133.74153578 234.38671875 130.45703125 C232.97433159 125.47699082 228.36582378 121.87756349 224.78515625 118.3359375 C224.08132813 117.63082031 223.3775 116.92570312 222.65234375 116.19921875 C221.32746481 114.87693761 219.99804411 113.55919111 218.6640625 112.24609375 C216.88701714 110.43949254 215.23800087 108.57896594 213.59765625 106.6484375 C210.24980295 102.76585763 206.70115436 99.1044578 203.09765625 95.4609375 C202.53860596 94.88899658 201.97955566 94.31705566 201.40356445 93.7277832 C196.56511222 88.80155359 196.56511222 88.80155359 190.03515625 87.2734375 C180.3865577 90.42778703 172.57544598 101.48979779 165.54956055 108.66748047 C164.04529371 110.20203775 162.53478756 111.73023535 161.0234375 113.2578125 C160.13696533 114.16112305 159.25049316 115.06443359 158.3371582 115.99511719 C152.74104937 121.12814038 152.74104937 121.12814038 148.61816406 121.56616211 C142.75065193 120.83507709 138.54721898 118.96474875 133.53515625 115.8984375 C131.9467803 114.97827488 130.35551553 114.06308477 128.76171875 113.15234375 C127.53243652 112.44875732 127.53243652 112.44875732 126.27832031 111.73095703 C108.46232763 101.76223571 89.16412295 94.56048896 69.62109375 88.7734375 C68.88286377 88.55469971 68.14463379 88.33596191 67.3840332 88.1105957 C65.52504734 87.57458551 63.65739563 87.06886686 61.7890625 86.56640625 C57.6708858 84.87950682 54.7892274 82.3440798 52.78515625 78.3359375 C52.68207201 76.8205445 52.63928253 75.30083136 52.62744141 73.78198242 C52.61204819 72.36492256 52.61204819 72.36492256 52.59634399 70.91923523 C52.58904266 69.89530167 52.58174133 68.8713681 52.57421875 67.81640625 C52.54614827 65.65819557 52.51748379 63.49999254 52.48828125 61.34179688 C52.44701949 57.93156157 52.41014104 54.52146895 52.38378906 51.11108398 C52.35618138 47.82505567 52.31030572 44.53968236 52.26171875 41.25390625 C52.25683945 39.72711494 52.25683945 39.72711494 52.25186157 38.16947937 C52.17573196 31.24663006 52.17573196 31.24663006 48.78515625 25.3359375 C46.21263445 24.0496766 44.36140012 24.20189672 41.48095703 24.19067383 C39.81880661 24.18110405 39.81880661 24.18110405 38.12307739 24.17134094 C36.31998611 24.16967171 36.31998611 24.16967171 34.48046875 24.16796875 C33.24980682 24.16464035 32.0191449 24.16131195 30.75119019 24.15788269 C28.14353815 24.15281185 25.53587961 24.15047441 22.92822266 24.15063477 C20.25302383 24.15071613 17.57799583 24.14376159 14.90283203 24.13012695 C11.05365739 24.11184278 7.20468243 24.10689973 3.35546875 24.10546875 C2.15745636 24.09828323 0.95944397 24.09109772 -0.27487183 24.08369446 C-1.38927643 24.08677109 -2.50368103 24.08984772 -3.65185547 24.09301758 C-4.6317746 24.09159256 -5.61169373 24.09016754 -6.62130737 24.08869934 C-9.35830175 24.34961315 -10.96035302 24.77018576 -13.21484375 26.3359375 C-15.41583871 32.52064164 -15.50875598 38.49190842 -15.5234375 45.00390625 C-15.54857634 47.0514354 -15.57397464 49.09896137 -15.59960938 51.14648438 C-15.62842443 54.3459403 -15.65247157 57.5453416 -15.67114258 60.74487305 C-15.69277986 63.85231994 -15.73219006 66.95916688 -15.7734375 70.06640625 C-15.77355331 71.02169724 -15.77366913 71.97698822 -15.77378845 72.96122742 C-15.90221017 81.57566338 -15.90221017 81.57566338 -19.21484375 85.3359375 C-21.14916992 86.40136719 -21.14916992 86.40136719 -23.3203125 87.0078125 C-24.11872559 87.23791016 -24.91713867 87.46800781 -25.73974609 87.70507812 C-26.55652832 87.91326172 -27.37331055 88.12144531 -28.21484375 88.3359375 C-28.96846191 88.52865234 -29.72208008 88.72136719 -30.49853516 88.91992188 C-32.83733091 89.49416852 -35.18188306 90.03961476 -37.52734375 90.5859375 C-60.32007207 96.13962558 -81.15630519 105.20470878 -101.09936523 117.52612305 C-109.57778261 122.60491393 -109.57778261 122.60491393 -115.21484375 121.3359375 C-123.8111866 116.46075128 -130.72019609 108.02419992 -137.58984375 101.0234375 C-139.35108527 99.23448835 -141.11383085 97.44708482 -142.87954712 95.66255188 C-143.96974718 94.56017832 -145.05726337 93.45514211 -146.14169312 92.34709167 C-150.34509353 87.99776998 -150.34509353 87.99776998 -155.83984375 85.7734375 C-164.83604524 87.27280442 -172.1839268 97.08866993 -178.27734375 103.3359375 C-183.55691902 108.72407981 -188.8199155 114.02373217 -194.57617188 118.90600586 C-197.81330136 121.73077752 -199.82836411 124.20065355 -201.21484375 128.2734375 C-201.21484375 133.48577954 -197.71197396 136.93975279 -194.22216797 140.52392578 C-193.07613264 141.6562903 -191.92500937 142.78352265 -190.76953125 143.90625 C-190.15844513 144.50976288 -189.54735901 145.11327576 -188.91775513 145.7350769 C-186.97991388 147.64864289 -185.03573263 149.55555783 -183.08984375 151.4609375 C-180.51896195 153.97858931 -177.95479959 156.50281095 -175.39453125 159.03125 C-174.80493622 159.60424835 -174.21534119 160.1772467 -173.60787964 160.76760864 C-169.77451428 164.55472007 -167.43639058 167.15357388 -166.875 172.68359375 C-167.26972492 176.92575239 -168.42666925 179.15942802 -170.65234375 182.7734375 C-171.39001172 184.00349344 -172.12696333 185.23397919 -172.86328125 186.46484375 C-173.24967773 187.09922363 -173.63607422 187.73360352 -174.03417969 188.38720703 C-187.22380663 210.15718269 -196.75226052 233.46396069 -202.1328125 258.41015625 C-203.66517926 262.55363171 -206.24940771 265.35321948 -210.21484375 267.3359375 C-211.69959539 267.43886305 -213.18873432 267.48179686 -214.67700195 267.49365234 C-216.06403069 267.50904556 -216.06403069 267.50904556 -217.4790802 267.52474976 C-218.48113998 267.53205109 -219.48319977 267.53935242 -220.515625 267.546875 C-222.62826293 267.57494573 -224.74089304 267.60361021 -226.85351562 267.6328125 C-230.19132248 267.67407154 -233.52898365 267.71095045 -236.86694336 267.73730469 C-240.08347928 267.76491648 -243.29934661 267.8107922 -246.515625 267.859375 C-247.51161209 267.86262787 -248.50759918 267.86588074 -249.5337677 267.86923218 C-256.37226808 267.96809272 -256.37226808 267.96809272 -262.21484375 271.3359375 C-263.50614109 273.91853217 -263.37026234 275.82399492 -263.40771484 278.71606445 C-263.42377777 279.84095779 -263.4398407 280.96585114 -263.45639038 282.12483215 C-263.50075851 287.27159841 -263.54234477 292.41827551 -263.56494141 297.56518555 C-263.57827586 300.28232529 -263.60611757 302.9987131 -263.64697266 305.71557617 C-263.70578543 309.6267698 -263.72360338 313.53759802 -263.73828125 317.44921875 C-263.76095062 318.66394363 -263.78362 319.87866852 -263.80697632 321.13020325 C-263.794662 327.66719004 -263.794662 327.66719004 -261.33984375 333.60375977 C-256.78081321 336.13081615 -252.82622455 336.00739485 -247.69140625 335.9375 C-246.67186859 335.94550629 -245.65233093 335.95351257 -244.60189819 335.96176147 C-241.34747493 335.9848191 -238.09430048 335.97537608 -234.83984375 335.9609375 C-231.59276155 335.9570834 -228.34623315 335.96059395 -225.09921265 335.98153687 C-223.08136265 335.9935731 -221.06335718 335.99104461 -219.04556274 335.97183228 C-213.34332125 335.99438502 -209.1668285 336.39170933 -204.21484375 339.3359375 C-201.702902 342.53695212 -200.71816436 345.57238866 -199.890625 349.51953125 C-199.67124268 350.51815186 -199.45186035 351.51677246 -199.22583008 352.5456543 C-198.99532959 353.61082275 -198.7648291 354.67599121 -198.52734375 355.7734375 C-192.91350278 380.16967232 -183.32038154 402.94883335 -169.67578125 423.97265625 C-167.09621993 428.14547603 -166.5799157 431.49461112 -167.21484375 436.3359375 C-172.85023448 444.68205329 -181.51873235 451.68279928 -188.69189453 458.71704102 C-190.36543763 460.36031639 -192.03264639 462.00981592 -193.69921875 463.66015625 C-194.20862 464.15609787 -194.71802124 464.65203949 -195.24285889 465.16300964 C-199.09062341 468.98355898 -202.13013798 472.09123473 -202.33984375 477.6484375 C-199.89657153 485.6569409 -192.42623677 491.16311977 -186.61328125 496.90625 C-184.59499645 498.95083167 -182.69984857 501.02429768 -180.83984375 503.2109375 C-177.70405265 506.87186108 -174.36541399 510.29817519 -170.96484375 513.7109375 C-170.44486816 514.2354248 -169.92489258 514.75991211 -169.38916016 515.30029297 C-165.11198994 519.68884118 -165.11198994 519.68884118 -159.52734375 521.8359375 C-148.6314765 520.19127829 -138.52614173 506.03452983 -131.71875 498.0625 C-129.65986016 495.69878751 -127.46451837 493.51744016 -125.21484375 491.3359375 C-120.96169589 493.01236074 -118.09382561 496.0535284 -114.90234375 499.2109375 C-114.33966797 499.74074219 -113.77699219 500.27054687 -113.19726562 500.81640625 C-111.6015625 502.390625 -111.6015625 502.390625 -109.21484375 505.3359375 C-109.65041287 508.76498856 -110.83128038 510.26860991 -113.33984375 512.5859375 C-115.8170324 514.95325085 -118.13018567 517.34249268 -120.33984375 519.9609375 C-141.30903299 544.1416242 -141.30903299 544.1416242 -155.70703125 545.5859375 C-163.65978609 545.94640231 -171.05188661 544.57762914 -177.45214844 539.59375 C-184.16759208 533.4065529 -190.67604816 527.02820526 -197.12036133 520.56079102 C-198.90659045 518.769178 -200.69813722 516.98300695 -202.49023438 515.19726562 C-225.07688624 492.62587858 -225.07688624 492.62587858 -226.52734375 476.9609375 C-225.1342986 460.80161375 -215.56624793 452.3216586 -204.20922852 441.82397461 C-202.69397195 440.41768138 -201.20539583 438.98720628 -199.71875 437.55078125 C-198.83002197 436.71667725 -197.94129395 435.88257324 -197.02563477 435.02319336 C-194.85669589 432.37166287 -194.85669589 432.37166287 -195.33984375 428.69140625 C-196.29067343 425.04514421 -197.62485463 422.56817401 -199.65234375 419.3984375 C-210.04388792 402.15228759 -216.02445322 382.69530939 -221.52563477 363.45532227 C-222.02508835 361.37443614 -222.02508835 361.37443614 -223.21484375 360.3359375 C-225.70132046 360.2003635 -228.16386651 360.12532057 -230.65234375 360.08984375 C-232.20312974 360.05686262 -233.75391085 360.0236518 -235.3046875 359.99023438 C-237.74882095 359.94312855 -240.19294112 359.8987929 -242.63720703 359.85913086 C-269.27874597 359.40541507 -269.27874597 359.40541507 -279.07421875 349.4453125 C-285.12622993 341.83535784 -287.30498835 333.43979045 -287.37597656 323.79638672 C-287.38558411 322.73443085 -287.39519165 321.67247498 -287.40509033 320.57833862 C-287.40934021 319.44389313 -287.41359009 318.30944763 -287.41796875 317.140625 C-287.42366882 315.9567923 -287.4293689 314.77295959 -287.4352417 313.55325317 C-287.44467311 311.05015959 -287.45121828 308.54705369 -287.45507812 306.04394531 C-287.46475641 302.24521769 -287.49578736 298.44703767 -287.52734375 294.6484375 C-287.53387735 292.20833652 -287.53912642 289.7682317 -287.54296875 287.328125 C-287.55531555 286.20582489 -287.56766235 285.08352478 -287.5803833 283.92721558 C-287.54975202 272.89512272 -286.18317457 262.45760489 -278.23828125 254.30859375 C-269.70694969 246.20236291 -261.37884565 244.28352711 -249.734375 244.125 C-248.30923267 244.09696346 -246.88410258 244.06829929 -245.45898438 244.0390625 C-243.23380468 243.99765005 -241.00886196 243.96072033 -238.78344727 243.93457031 C-236.62079216 243.90701754 -234.45914343 243.86119499 -232.296875 243.8125 C-231.01014893 243.79268066 -229.72342285 243.77286133 -228.39770508 243.75244141 C-225.27208235 243.59620044 -225.27208235 243.59620044 -223.34570312 242.00805664 C-221.51625571 239.3029864 -220.77813758 236.25739456 -219.90234375 233.1484375 C-219.4641823 231.68652355 -219.02268347 230.22560638 -218.578125 228.765625 C-218.35205566 228.02280273 -218.12598633 227.27998047 -217.89306641 226.51464844 C-214.65765748 216.12127578 -210.38129639 206.28252189 -205.71484375 196.4609375 C-205.26415527 195.51017334 -204.8134668 194.55940918 -204.34912109 193.57983398 C-201.62672759 187.94887102 -198.65421499 182.70122035 -195.13867188 177.52294922 C-193.94394605 175.36542163 -193.94394605 175.36542163 -194.92529297 173.19702148 C-196.66130584 170.69160193 -198.66613808 168.66012961 -200.83984375 166.5234375 C-201.73445313 165.64300781 -202.6290625 164.76257813 -203.55078125 163.85546875 C-205.80255263 161.72586092 -208.09262684 159.70305015 -210.46484375 157.7109375 C-214.38666812 154.3267826 -217.4309291 150.70124746 -220.21484375 146.3359375 C-220.62992187 145.69398438 -221.045 145.05203125 -221.47265625 144.390625 C-225.13880333 137.64799086 -225.88232112 128.79992161 -224.21484375 121.3359375 C-220.62150262 111.0600028 -214.00130146 104.35102968 -206.33984375 97.0234375 C-205.27729816 95.98249365 -204.21609278 94.94017997 -203.15625 93.89648438 C-198.18549516 89.02593857 -193.11576411 84.30269909 -187.83349609 79.76928711 C-185.72577354 77.90285587 -183.85397357 75.85839176 -181.96484375 73.7734375 C-174.98453789 66.68406437 -166.40761148 62.75578616 -156.52734375 62.0859375 C-143.79567062 62.27847698 -134.84918971 69.75653488 -126.21484375 78.3359375 C-123.07746823 81.63575494 -119.99251947 84.98363257 -116.94921875 88.37036133 C-116.37816406 88.99837646 -115.80710938 89.6263916 -115.21875 90.2734375 C-114.45800171 91.12228516 -114.45800171 91.12228516 -113.68188477 91.98828125 C-112.14168333 93.58749598 -112.14168333 93.58749598 -109.21484375 94.3359375 C-106.87819264 93.41904883 -106.87819264 93.41904883 -104.3671875 91.94140625 C-103.38250488 91.40257813 -102.39782227 90.86375 -101.38330078 90.30859375 C-100.31708496 89.71949219 -99.25086914 89.13039063 -98.15234375 88.5234375 C-79.376649 78.47039564 -59.93315641 71.21693646 -39.21484375 66.3359375 C-39.20026123 65.21735352 -39.18567871 64.09876953 -39.1706543 62.94628906 C-39.11207706 58.74139619 -39.03485564 54.5370061 -38.95239258 50.33251953 C-38.91941971 48.52303308 -38.89130464 46.7134506 -38.8684082 44.90380859 C-38.49993193 16.5389758 -38.49993193 16.5389758 -28.83984375 5.80859375 C-21.11709331 -1.43148479 -9.8280318 0.00942961 0 0 Z " fill="#00A99D" transform="translate(287.21484375,-0.3359375)"/>
<path d="M0 0 C3.19547554 2.8814587 6.27566958 5.87052264 9.3515625 8.87890625 C10.13660156 9.60207031 10.92164063 10.32523438 11.73046875 11.0703125 C34.09029272 32.15014654 49.10113691 62.81169835 54.3515625 92.87890625 C54.52743896 93.88493896 54.70331543 94.89097168 54.88452148 95.92749023 C56.33131199 105.00129199 56.71234048 113.90589163 56.6640625 123.06640625 C56.66132828 124.14899216 56.66132828 124.14899216 56.65853882 125.25344849 C56.61007427 136.6839779 55.99067943 147.72509696 53.3515625 158.87890625 C53.17995605 159.62591797 53.00834961 160.37292969 52.83154297 161.14257812 C50.20381665 172.27342956 46.35156316 182.60665358 41.3515625 192.87890625 C41.05411133 193.49830078 40.75666016 194.11769531 40.45019531 194.75585938 C32.60202616 210.89339205 22.07815765 225.25649082 9.3515625 237.87890625 C8.86719727 238.36053223 8.38283203 238.8421582 7.88378906 239.33837891 C-22.73002372 269.3898137 -64.05441196 284.50369062 -106.66699219 284.23486328 C-152.53457501 283.21508742 -191.89663898 263.81062095 -223.5546875 231.28125 C-233.5408637 220.74105251 -240.99177314 208.72295782 -247.6484375 195.87890625 C-248.12772705 194.9672168 -248.12772705 194.9672168 -248.61669922 194.03710938 C-267.86578496 156.96777751 -269.164834 112.10081515 -256.96044922 72.65527344 C-247.11885056 42.78967299 -227.83054199 14.80796455 -202.6484375 -4.12109375 C-202.12556152 -4.51893066 -201.60268555 -4.91676758 -201.06396484 -5.32666016 C-142.03822084 -49.99243574 -56.37251993 -49.29886765 0 0 Z M-191.10595703 45.50439453 C-212.10180486 69.94426715 -222.44387381 100.5863051 -220.40625 132.6953125 C-217.99967769 161.58103654 -204.79569376 186.44383204 -184.6484375 206.87890625 C-183.86984375 207.67039062 -183.09125 208.461875 -182.2890625 209.27734375 C-158.85341578 231.69063005 -128.42140924 239.48619883 -96.8359375 239.15625 C-87.75469221 238.91683102 -79.32825097 237.51129216 -70.6484375 234.87890625 C-69.9589502 234.66991699 -69.26946289 234.46092773 -68.55908203 234.24560547 C-53.20854698 229.39519972 -39.6812083 221.54475429 -27.6484375 210.87890625 C-26.89433594 210.26789063 -26.14023438 209.656875 -25.36328125 209.02734375 C-4.08004187 191.38515238 9.38323964 163.06986381 12.3515625 135.87890625 C14.09168674 102.8619402 6.5505978 72.11014992 -15.6484375 46.87890625 C-23.75392969 37.88459981 -32.21990593 30.11874033 -42.6484375 23.87890625 C-43.58913086 23.30897949 -43.58913086 23.30897949 -44.54882812 22.72753906 C-92.07147192 -5.55752812 -154.27310489 4.42681839 -191.10595703 45.50439453 Z " fill="#0D7F80" transform="translate(1974.6484375,190.12109375)"/>
<path d="M0 0 C5.05718053 4.77777829 9.92599291 9.73755513 14.75 14.75 C15.46671875 15.48436279 16.1834375 16.21872559 16.921875 16.9753418 C17.581875 17.67312744 18.241875 18.37091309 18.921875 19.08984375 C19.51581055 19.71109131 20.10974609 20.33233887 20.72167969 20.97241211 C22 22.8125 22 22.8125 22 26.8125 C20.17978681 29.01245888 18.37631004 30.95132275 16.34375 32.9387207 C15.4413131 33.84444321 15.4413131 33.84444321 14.52064514 34.76846313 C12.52325465 36.76817025 10.51191687 38.75319819 8.5 40.73828125 C7.10588881 42.12746745 5.71258937 43.51746871 4.32006836 44.9082489 C1.39367081 47.82699519 -1.53907107 50.7391533 -4.47705078 53.64624023 C-8.22664995 57.35646583 -11.9655845 61.07719669 -15.70040894 64.80228901 C-19.27594856 68.36779839 -22.85637717 71.92838083 -26.4375 75.48828125 C-27.45191162 76.49759925 -27.45191162 76.49759925 -28.48681641 77.52730751 C-40.83492352 89.8007972 -40.83492352 89.8007972 -47.20324707 95.22550964 C-50.82726153 98.42643722 -54.14666998 101.94156238 -57.515625 105.40625 C-59.11138704 107.02922825 -60.70775862 108.65160736 -62.3046875 110.2734375 C-64.79480167 112.80704711 -67.28081924 115.34420768 -69.75683594 117.89160156 C-72.16516603 120.36617256 -74.58880517 122.82482788 -77.015625 125.28125 C-78.12819672 126.43723694 -78.12819672 126.43723694 -79.26324463 127.61657715 C-79.95786804 128.31480591 -80.65249146 129.01303467 -81.36816406 129.73242188 C-81.97468811 130.35306519 -82.58121216 130.9737085 -83.20611572 131.61315918 C-85 132.8125 -85 132.8125 -87.13983154 132.58752441 C-89.42263629 131.63641195 -90.28581874 130.63054888 -91.8125 128.6875 C-96.08108506 123.55403823 -100.81953653 118.9386958 -105.58129883 114.26904297 C-109.29179147 110.60682545 -112.73492178 106.87821043 -116 102.8125 C-114.45872649 99.09981906 -112.19156766 96.83134302 -109.3125 94.0625 C-106.43520563 91.28812596 -103.69862112 88.48574378 -101.11962891 85.43652344 C-95.80520917 79.33944287 -90.0139023 73.70289145 -84.28515625 68 C-83.06182777 66.77854016 -81.83872252 65.55685671 -80.61582947 64.33496094 C-77.42058239 61.1435039 -74.22234214 57.95506333 -71.0234375 54.76727295 C-67.75011567 51.50424138 -64.47967726 48.23832256 -61.20898438 44.97265625 C-54.80878491 38.58313203 -48.40541493 32.19679549 -42 25.8125 C-45.6405227 22.05883844 -49.12135527 19.2810121 -53.75 16.875 C-54.40121826 16.53509033 -55.05243652 16.19518066 -55.72338867 15.8449707 C-83.36719954 1.84398673 -115.09023356 -0.13510017 -144.625 9 C-174.9114423 19.8396989 -199.72295655 40.95057253 -213.75 70.0625 C-226.88870851 98.59087592 -227.40844575 131.00773451 -216.79296875 160.3203125 C-212.05203282 172.625889 -205.395312 183.66755205 -197 193.8125 C-196.31550781 194.66070312 -195.63101563 195.50890625 -194.92578125 196.3828125 C-176.89395077 217.64770686 -149.39510647 230.4195 -122 233.8125 C-117.57881102 234.09442703 -113.17931814 234.14689904 -108.75 234.125 C-107.56631836 234.12008545 -106.38263672 234.1151709 -105.16308594 234.11010742 C-78.73348245 233.75759219 -54.58114992 224.16617048 -34 207.8125 C-33.29359375 207.03390625 -32.5871875 206.2553125 -31.859375 205.453125 C-30 203.8125 -30 203.8125 -27.94140625 203.8515625 C-25.62838396 204.99643873 -24.54661548 206.17096142 -22.9375 208.1875 C-19.959949 211.76056121 -16.81420209 215.04830645 -13.5 218.3125 C-9.63833124 222.13173284 -5.94849605 226.01327466 -2.4375 230.15625 C-1.02363605 231.78526716 0.45697856 233.30621717 2 234.8125 C0.15990104 240.33279687 -5.49492382 243.35146157 -10 246.8125 C-10.80026611 247.4310083 -10.80026611 247.4310083 -11.61669922 248.06201172 C-32.03268912 263.68143702 -55.69905779 273.42947154 -81 277.8125 C-82.27488281 278.03679687 -83.54976562 278.26109375 -84.86328125 278.4921875 C-127.2923906 284.81971555 -170.61464193 273.54078971 -205.1875 248.4375 C-211.47347385 243.5897705 -217.25495635 238.27849868 -223 232.8125 C-223.69609375 232.18085938 -224.3921875 231.54921875 -225.109375 230.8984375 C-236.48828846 220.2248286 -244.95217513 206.61205157 -252 192.8125 C-252.48509033 191.86310547 -252.48509033 191.86310547 -252.97998047 190.89453125 C-272.26395111 152.58331462 -274.76111082 108.46604339 -261.7265625 67.8046875 C-247.63492204 25.91984613 -216.40713332 -7.21796542 -177.14453125 -26.77734375 C-118.78430584 -54.75678527 -47.76779839 -42.4316917 0 0 Z " fill="#0D7F80" transform="translate(1004,194.1875)"/>
<path d="M0 0 C6.53987073 5.38232741 12.47102021 11.33672365 18.44311523 17.32958984 C19.58677536 18.47353244 20.73065653 19.6172541 21.8747406 20.76077271 C24.963247 23.84899347 28.04867136 26.94027665 31.13353229 30.03213835 C34.36416423 33.26904286 37.59764879 36.50309527 40.83082581 39.73745728 C46.94539813 45.85513143 53.05741794 51.97534911 59.16851431 58.09649527 C66.12907617 65.06825398 73.09249482 72.03715635 80.05614936 79.00582576 C94.37393682 93.3340516 108.68815086 107.66584278 123 122 C126.77548454 120.43120659 129.16553294 118.08098268 132.03668213 115.2038269 C132.53012611 114.71209177 133.02357009 114.22035664 133.53196692 113.71372044 C135.18267592 112.06630328 136.8261392 110.41184425 138.46972656 108.75732422 C139.65213793 107.57434867 140.83498994 106.39181342 142.01824951 105.20968628 C145.22901572 101.99949432 148.43357446 98.78316948 151.63706684 95.56572104 C154.98605788 92.20423474 158.34070655 88.84840441 161.69476318 85.49197388 C168.04518691 79.13533185 174.3904948 72.77360836 180.73398757 66.41005051 C187.95611674 59.16557328 195.18391994 51.92676845 202.41220903 44.68843818 C217.28113518 29.79860209 232.14290942 14.90164503 247 0 C248.1127367 0.94719021 249.22453275 1.89548554 250.3359375 2.84423828 C250.9551709 3.37220001 251.5744043 3.90016174 252.21240234 4.44412231 C258.40537083 9.83431817 263.99773024 15.87398345 269.328125 22.10546875 C272.07253502 25.21537263 275.02793506 28.10923774 278 31 C276.4351929 34.75845791 274.10729996 37.13924172 271.24179077 39.99871826 C270.75413919 40.48807869 270.26648761 40.97743912 269.76405871 41.48162866 C268.13046064 43.11851832 266.48982203 44.74816182 264.84912109 46.37792969 C263.67599764 47.55048896 262.50331448 48.72348889 261.33103943 49.89689636 C258.14770597 53.08080405 254.95824013 56.25850411 251.76765013 59.43513775 C248.4341909 62.75610139 245.10638795 66.08272299 241.77798462 69.40875244 C235.47446652 75.70605234 229.16586713 81.99823627 222.85543311 88.28860497 C215.67141408 95.45027562 208.49306772 102.61762059 201.3151958 109.78545141 C186.54977386 124.52996363 171.77723108 139.26732378 157 154 C158.44131168 157.00677831 159.85690813 159.09877481 162.23706055 161.44824219 C162.89502121 162.1028241 163.55298187 162.75740601 164.23088074 163.43182373 C165.29802055 164.47877411 165.29802055 164.47877411 166.38671875 165.546875 C167.12195267 166.27690735 167.85718658 167.0069397 168.61470032 167.75909424 C170.9676025 170.09419488 173.32705672 172.42252447 175.6875 174.75 C178.02926472 177.06399867 180.36950514 179.3794862 182.70674133 181.69805908 C184.15979808 183.13902375 185.61551808 184.57730974 187.0743866 186.01239014 C188.0849688 187.01317596 188.0849688 187.01317596 189.1159668 188.03417969 C189.69839645 188.60835632 190.28082611 189.18253296 190.88090515 189.77410889 C192.73400458 191.72059918 194.49023548 193.70972975 196.24557495 195.74359131 C199.97764105 200.03191342 203.92600498 204.06009973 207.95483398 208.06835938 C209.09753502 209.21127945 209.09753502 209.21127945 210.26332092 210.37728882 C212.7552128 212.86848996 215.25061647 215.35614087 217.74609375 217.84375 C219.48508723 219.58087631 221.2238585 221.31822509 222.9624176 223.05578613 C227.51889525 227.60846211 232.078369 232.15812581 236.63848877 236.70715332 C241.2992292 241.35762892 245.95710836 246.01096844 250.61523438 250.6640625 C259.74070292 259.7788352 268.8692446 268.8905236 278 278 C276.65518458 280.78690044 275.4054697 282.84142643 273.20263672 285.02441406 C272.64220673 285.58469299 272.08177673 286.14497192 271.50436401 286.722229 C270.90222076 287.31404968 270.30007751 287.90587036 269.6796875 288.515625 C268.75169846 289.4393692 268.75169846 289.4393692 267.80496216 290.3817749 C265.83296186 292.34260336 263.85411263 294.29635301 261.875 296.25 C260.53469836 297.58026799 259.19484917 298.910992 257.85546875 300.2421875 C254.57553411 303.5001015 251.28944058 306.75168533 248 310 C244.22451546 308.43120659 241.83446706 306.08098268 238.96331787 303.2038269 C238.46987389 302.71209177 237.97642991 302.22035664 237.46803308 301.71372044 C235.81732408 300.06630328 234.1738608 298.41184425 232.53027344 296.75732422 C231.34786207 295.57434867 230.16501006 294.39181342 228.98175049 293.20968628 C225.77098428 289.99949432 222.56642554 286.78316948 219.36293316 283.56572104 C216.01394212 280.20423474 212.65929345 276.84840441 209.30523682 273.49197388 C202.95481309 267.13533185 196.6095052 260.77360836 190.26601243 254.41005051 C183.04388326 247.16557328 175.81608006 239.92676845 168.58779097 232.68843818 C153.71886482 217.79860209 138.85709058 202.90164503 124 188 C117.53922424 193.32461922 111.66397845 199.1945704 105.75634766 205.11425781 C104.63400561 206.23524288 103.51145136 207.35601552 102.38870239 208.47659302 C99.35788659 211.50287249 96.33021511 214.53227913 93.30325747 217.56241703 C90.1315188 220.73669586 86.95733155 223.90852469 83.78353882 227.08074951 C78.46082694 232.40164586 73.14021899 237.72463917 67.82080078 243.04882812 C61.66674835 249.20833598 55.50908287 255.36421426 49.34955561 261.51824689 C44.05758158 266.8056889 38.76755122 272.09506962 33.47915304 277.38608813 C30.32183978 280.54496188 27.16385117 283.70315249 24.00410843 286.85959625 C21.03875191 289.82207231 18.07583668 292.78696822 15.11481857 295.75378036 C14.02601759 296.8439074 12.93635771 297.93317732 11.84579468 299.0215416 C10.36188935 300.50272974 8.88107421 301.98693857 7.40103149 303.47198486 C6.57036982 304.30302357 5.73970814 305.13406227 4.88387489 305.99028397 C2.95044444 307.86126343 2.95044444 307.86126343 2 310 C-1.245613 308.57925676 -3.3626159 306.86237319 -5.828125 304.33203125 C-6.54613281 303.60306641 -7.26414062 302.87410156 -8.00390625 302.12304688 C-8.74511719 301.36056641 -9.48632812 300.59808594 -10.25 299.8125 C-15.11801575 294.82775563 -20.01267463 289.98628751 -25.31347656 285.45947266 C-27.30844959 283.7330759 -29.17328821 281.90282479 -31 280 C-29.43120659 276.22451546 -27.08098268 273.83446706 -24.2038269 270.96331787 C-23.71209177 270.46987389 -23.22035664 269.97642991 -22.71372044 269.46803308 C-21.06630328 267.81732408 -19.41184425 266.1738608 -17.75732422 264.53027344 C-16.57434867 263.34786207 -15.39181342 262.16501006 -14.20968628 260.98175049 C-10.99949432 257.77098428 -7.78316948 254.56642554 -4.56572104 251.36293316 C-1.20423474 248.01394212 2.15159559 244.65929345 5.50802612 241.30523682 C11.86466815 234.95481309 18.22639164 228.6095052 24.58994949 222.26601243 C31.83442672 215.04388326 39.07323155 207.81608006 46.31156182 200.58779097 C61.20139791 185.71886482 76.09835497 170.85709058 91 156 C85.61767259 149.46012927 79.66327635 143.52897979 73.67041016 137.55688477 C72.52646756 136.41322464 71.3827459 135.26934347 70.23922729 134.1252594 C67.15100653 131.036753 64.05972335 127.95132864 60.96786165 124.86646771 C57.73095714 121.63583577 54.49690473 118.40235121 51.26254272 115.16917419 C45.14486857 109.05460187 39.02465089 102.94258206 32.90350473 96.83148569 C25.93174602 89.87092383 18.96284365 82.90750518 11.99417424 75.94385064 C-2.3340516 61.62606318 -16.66584278 47.31184914 -31 33 C-29.63441112 30.16625758 -28.35003769 28.10351562 -26.11083984 25.88378906 C-25.5303891 25.30348938 -24.94993835 24.7231897 -24.35189819 24.12530518 C-23.72788116 23.51161072 -23.10386414 22.89791626 -22.4609375 22.265625 C-21.82008209 21.62759949 -21.17922668 20.98957397 -20.51895142 20.33221436 C-18.47562179 18.30005931 -16.42544018 16.27497782 -14.375 14.25 C-12.9865214 12.8715547 -11.5984951 11.49265364 -10.2109375 10.11328125 C-6.81251303 6.73688106 -3.40792746 3.36680712 0 0 Z " fill="#0D7F80" transform="translate(1073,158)"/>
<path d="M0 0 C91.74 0 183.48 0 278 0 C278 14.85 278 29.7 278 45 C239.39 45 200.78 45 161 45 C161 156.87 161 268.74 161 384 C146.48 384 131.96 384 117 384 C117 272.13 117 160.26 117 45 C78.39 45 39.78 45 0 45 C0 30.15 0 15.3 0 0 Z " fill="#0D7F80" transform="translate(2653,84)"/>
<path d="M0 0 C16.5 0 33 0 50 0 C48.02 3.63 46.04 7.26 44 11 C29.96175563 40.10596 27.63316446 72.71201423 38.02001953 103.36157227 C49.01019177 133.67459916 72.24214928 156.17985415 100.90966797 170.03808594 C127.56882425 182.30590604 159.88363996 182.32594394 187.28515625 172.5 C218.24445795 160.31713201 240.65091601 138.25246646 254.25 108.0625 C266.39428749 78.42779847 265.24722831 46.81425681 253.36572266 17.30151367 C251.35938533 12.53820744 248.92457956 8.1768564 246.1015625 3.85546875 C245 2 245 2 245 0 C261.5 0 278 0 295 0 C310.96383898 43.33042009 313.22166346 88.72094625 293.86572266 131.50732422 C288.6373919 142.44240911 282.41197925 152.42768541 275 162 C274.27167969 162.95132813 273.54335937 163.90265625 272.79296875 164.8828125 C247.52044399 196.84914112 209.69355433 218.65275556 169.13671875 223.625 C124.54920116 228.66077662 81.6460109 217.73765953 46.328125 189.7265625 C13.37830923 163.02985512 -7.73114735 125.23567185 -12.79850769 83.06387329 C-15.54680005 54.91328431 -12.73527698 25.47055396 0 0 Z " fill="#0D7F80" transform="translate(2313,250)"/>
<path d="M0 0 C14.52 0 29.04 0 44 0 C44 126.72 44 253.44 44 384 C29.48 384 14.96 384 0 384 C0 257.28 0 130.56 0 0 Z " fill="#0D7F80" transform="translate(2159,84)"/>
<path d="M0 0 C0.82949158 0.00248749 1.65898315 0.00497498 2.51361084 0.00753784 C58.41246404 0.26565219 110.75610627 20.56432086 152.1015625 58.2578125 C154.79657001 60.69350658 157.56067675 63.01660471 160.375 65.3125 C155.84508204 70.74983055 151.03205784 75.77708931 146 80.75 C145.26394531 81.48154297 144.52789063 82.21308594 143.76953125 82.96679688 C141.97363926 84.75102723 140.17544015 86.53286124 138.375 88.3125 C135.05571714 86.73415419 132.79282391 84.98405918 130.125 82.4375 C90.0676911 45.89913478 38.93327846 31.40690962 -14.45379639 33.21026611 C-56.87877058 35.20790004 -97.15423583 54.62174381 -128.625 82.3125 C-130.06069481 83.54377469 -131.49781742 84.77339044 -132.9375 86 C-133.824375 86.763125 -134.71125 87.52625 -135.625 88.3125 C-139.19264285 86.79873919 -141.46206287 84.70736871 -144.171875 81.9609375 C-145.01621094 81.11015625 -145.86054688 80.259375 -146.73046875 79.3828125 C-147.60316406 78.49335938 -148.47585937 77.60390625 -149.375 76.6875 C-150.70724609 75.34171875 -150.70724609 75.34171875 -152.06640625 73.96875 C-154.25716969 71.75442996 -156.44312763 69.53557565 -158.625 67.3125 C-153.85065001 57.38559561 -143.22662331 50.80390125 -134.625 44.3125 C-134.06006836 43.88146973 -133.49513672 43.45043945 -132.91308594 43.00634766 C-123.36059864 35.75684167 -113.25302486 29.84550286 -102.625 24.3125 C-101.95694336 23.95945801 -101.28888672 23.60641602 -100.60058594 23.24267578 C-83.677612 14.40023142 -65.10712304 8.47312935 -46.5 4.375 C-45.65034668 4.18784424 -44.80069336 4.00068848 -43.92529297 3.80786133 C-29.35213434 0.83008574 -14.83544222 -0.07170046 0 0 Z " fill="#00A99D" transform="translate(2459.625,113.6875)"/>
<path d="M0 0 C0.79141388 0.00087616 1.58282776 0.00175232 2.39822388 0.00265503 C29.30302434 0.10061392 53.94618215 6.36948714 77.5625 19.375 C78.61695312 19.93960938 79.67140625 20.50421875 80.7578125 21.0859375 C92.54328604 27.64026091 102.74234123 36.19769587 112.5625 45.375 C112.03363167 49.45835544 109.96620962 51.31853018 107.08984375 54.140625 C106.19072266 55.03007812 105.29160156 55.91953125 104.36523438 56.8359375 C103.41970703 57.75632813 102.47417969 58.67671875 101.5 59.625 C100.54033027 60.56961673 99.58133771 61.51492195 98.62304688 62.4609375 C96.27611172 64.77249172 93.92246609 67.0767634 91.5625 69.375 C88.16220347 67.76631962 85.90002123 65.93707259 83.1875 63.3125 C61.11707341 43.17807575 31.18831602 32.9599339 1.625 33 C0.94541229 33.00054382 0.26582458 33.00108765 -0.43435669 33.00164795 C-34.52643749 33.12660609 -63.57946973 46.33738104 -88.4375 69.375 C-93.87483055 64.84508204 -98.90208931 60.03205784 -103.875 55 C-104.60654297 54.26394531 -105.33808594 53.52789062 -106.09179688 52.76953125 C-107.87602723 50.97363926 -109.65786124 49.17544015 -111.4375 47.375 C-109.07615079 42.42347636 -105.6549123 39.81482691 -101.4375 36.375 C-100.53 35.61960938 -99.6225 34.86421875 -98.6875 34.0859375 C-70.4605066 11.40353209 -36.0468068 -0.09778768 0 0 Z " fill="#00A99D" transform="translate(2459.4375,167.625)"/>
<path d="M0 0 C1.82753471 1.58386342 3.61238304 3.187421 5.3515625 4.8671875 C3.8123824 8.53470755 1.59670798 10.85299323 -1.21875 13.6328125 C-2.11464844 14.52226562 -3.01054687 15.41171875 -3.93359375 16.328125 C-4.87074219 17.24851562 -5.80789062 18.16890625 -6.7734375 19.1171875 C-7.72832387 20.06203606 -8.68275609 21.00734383 -9.63671875 21.953125 C-11.96952837 24.26237088 -14.30687836 26.56681953 -16.6484375 28.8671875 C-17.1338501 28.48336914 -17.6192627 28.09955078 -18.11938477 27.70410156 C-33.00318789 16.20029985 -47.87478553 11.43029139 -66.6484375 12.8671875 C-70.79777137 13.51759796 -74.67038045 14.53157356 -78.6484375 15.8671875 C-79.50824219 16.145625 -80.36804687 16.4240625 -81.25390625 16.7109375 C-87.82122392 19.07313548 -93.08558936 22.71876896 -98.6484375 26.8671875 C-100.9584375 28.5171875 -103.2684375 30.1671875 -105.6484375 31.8671875 C-112.9084375 24.6071875 -120.1684375 17.3471875 -127.6484375 9.8671875 C-95.93895755 -27.12720578 -37.35551277 -30.08275807 0 0 Z " fill="#00A99D" transform="translate(2522.6484375,241.1328125)"/>
<path d="M0 0 C6.28980543 6.80514664 8.89355488 13.91851846 8.921875 23.13671875 C8.30886861 31.0658232 4.75783814 37.56056188 -1.0390625 42.96484375 C-8.01621892 48.47171816 -14.58430951 49.72329491 -23.3984375 49.57421875 C-31.10319691 48.65815394 -37.78571779 45.31854896 -42.640625 39.19921875 C-43.48814388 37.86668907 -44.30428331 36.51334239 -45.078125 35.13671875 C-45.696875 34.10546875 -46.315625 33.07421875 -46.953125 32.01171875 C-49.61166948 25.07084814 -49.24732918 16.01520634 -46.453125 9.19921875 C-42.05031169 0.95923134 -36.78421502 -3.42666677 -28.078125 -6.86328125 C-18.21877027 -9.73892638 -7.55507103 -6.77400166 0 0 Z M-29.078125 13.13671875 C-31.46434052 16.60057999 -32.08961719 18.48166419 -32.015625 22.69921875 C-30.73647138 27.38944868 -28.96126936 30.01701129 -24.765625 32.51171875 C-21.16568635 33.34891379 -18.65970903 33.03211476 -15.078125 32.13671875 C-11.59023668 29.8889685 -9.61682486 27.96948022 -8.078125 24.13671875 C-7.75447532 19.49774003 -8.49807273 16.00679715 -11.078125 12.13671875 C-17.39453246 7.92578045 -23.36334656 7.83013877 -29.078125 13.13671875 Z " fill="#00A99D" transform="translate(2480.078125,299.86328125)"/>
</svg>
