<svg width="385" height="235" viewBox="0 0 385 235" fill="none" xmlns="http://www.w3.org/2000/svg">
<path d="M324.667 155.664C323.782 155.681 322.914 155.735 322.073 155.83C308.744 157.329 299.265 164.946 295.778 177.134C295.147 179.341 295.003 180.855 294.995 185.475C294.986 191.356 295.447 194.096 297.151 198.238C300.922 207.403 309.716 213.421 320.568 214.582C327.471 215.321 335.607 214.051 341.418 211.24C343.684 210.144 345.474 208.873 346.622 207.067C347.77 205.261 348.093 203.105 347.929 200.795C347.725 197.929 346.578 195.358 344.467 193.748C343.343 192.891 341.78 192.423 340.088 192.435H340.088C338.257 192.447 336.688 192.903 332.99 194.405C330.992 195.217 329.89 195.635 329.198 195.82C328.506 196.005 328.171 196.022 327.189 196.021C324.767 196.018 324.007 195.797 322.409 194.722C320.889 193.699 320.512 193.228 319.637 191.153C319.282 190.31 319.21 190.151 319.132 189.449C319.054 188.746 319.034 187.458 319.036 185.026C319.039 182.713 319.064 181.412 319.14 180.655C319.217 179.897 319.286 179.702 319.563 179.012C320.802 175.924 322.506 174.721 326.159 174.5C328.763 174.342 329.829 174.587 333.85 176.334C336.665 177.557 338.077 177.91 340.071 177.919C341.008 177.923 341.733 177.909 342.513 177.731C343.292 177.553 344.018 177.162 344.569 176.77C346.981 175.048 348 172.028 348.004 168.7C348.006 166.756 347.762 165.01 346.831 163.479C345.901 161.948 344.488 160.895 342.693 159.845C337.926 157.057 330.863 155.541 324.667 155.664Z" fill="white"/>
<path d="M278.786 130.544C275.597 130.544 274.507 130.778 272.547 131.743C268.776 133.6 266.658 137.062 266.658 141.317C266.658 143.723 267.262 145.924 268.561 147.697C269.859 149.469 271.78 150.741 274.123 151.58C275.709 152.148 277.55 152.274 279.419 152.186C281.288 152.098 283.123 151.794 284.662 151.089C288.669 149.254 290.913 145.741 290.913 141.317C290.913 136.91 288.682 133.443 284.643 131.526C283.843 131.146 283.068 130.843 282.158 130.7C281.249 130.556 280.293 130.544 278.786 130.544Z" fill="white"/>
<path d="M279.143 156.658C274.614 156.563 269.831 158.72 268.493 163.229C267.915 165.174 267.96 168.164 267.963 185.762L267.966 206.27C267.966 206.546 268.038 206.817 268.175 207.056L269.077 208.63C270.312 210.784 272.166 212.283 274.585 213.119C275.763 213.527 277.325 213.751 278.653 213.757C283.113 213.78 286.846 211.866 288.63 208.348L289.476 206.681C289.589 206.458 289.647 206.211 289.646 205.96L289.559 184.691L289.472 163.422C289.471 163.114 289.38 162.814 289.21 162.557L288.37 161.287C286.301 158.16 282.666 156.731 279.143 156.658Z" fill="white"/>
<path d="M248.441 133.73C244.36 133.856 240.2 135.749 238.263 139.572L237.515 141.048C237.357 141.36 237.274 141.705 237.274 142.055V173.89C237.274 185.513 237.298 193.544 237.353 198.779C237.381 201.396 237.417 203.312 237.463 204.647C237.486 205.315 237.511 205.835 237.542 206.247C237.573 206.66 237.503 206.767 237.742 207.471C238.739 210.413 241.175 212.621 244.314 213.742C247.581 214.908 251.583 214.665 254.663 213.089C257.152 211.816 259.113 209.688 259.836 207.086C260.045 206.333 259.962 206.302 259.987 205.851C260.011 205.4 260.033 204.813 260.053 204.07C260.093 202.583 260.125 200.479 260.152 197.756C260.205 192.308 260.232 184.386 260.232 174.075C260.233 156.477 260.276 148.257 259.996 143.883C259.856 141.696 259.664 140.389 259.118 139.233C258.573 138.078 257.802 137.49 257.307 136.994C254.919 134.606 251.614 133.631 248.441 133.73Z" fill="white"/>
<path d="M211.733 155.974C210.693 155.98 209.667 156.033 208.664 156.139C200.257 157.033 193.63 160.016 188.755 165.283C182.151 172.419 179.766 183.766 182.422 194.196C185.106 204.739 193.506 212.261 204.354 213.864C205.583 214.046 206.927 214.244 207.347 214.306C213.034 215.141 221.571 213.756 227.116 211.193C229.501 210.091 231.327 208.87 232.504 207.101C233.681 205.332 234.014 203.201 233.877 200.835C233.752 198.674 233.351 197.313 232.483 196.086C231.695 194.972 230.931 194.067 229.847 193.463C228.764 192.858 227.562 192.716 226.327 192.733C224.551 192.757 223.049 193.182 219.884 194.481C215.358 196.338 214.063 196.594 211.984 196.259C209.771 195.903 209.101 195.595 207.797 194.416C205.612 192.441 204.667 189.621 204.884 183.976C204.989 181.225 205.407 179.273 206.068 177.921C206.728 176.569 207.58 175.728 209.012 174.996C209.814 174.586 210.041 174.486 210.465 174.41C210.888 174.335 211.678 174.305 213.234 174.305H216.173L219.535 175.757C222.397 176.993 224.588 177.716 226.649 177.754C228.711 177.793 230.62 176.873 231.894 175.421C233.384 173.723 233.984 171.434 234 168.635C234.017 165.736 233.117 163.477 231.196 161.785C226.867 157.974 219.007 155.937 211.733 155.974Z" fill="white"/>
<path d="M130.136 155.263C125.799 155.396 121.35 157.435 119.273 161.617C119.068 162.031 118.806 162.746 118.688 163.463C118.57 164.179 118.519 164.966 118.481 166.157C118.404 168.539 118.405 172.563 118.416 180.172C118.428 187.938 118.437 191.97 118.53 194.473C118.622 196.977 118.869 198.214 119.203 199.43C120.607 204.548 122.958 208.515 126.501 211.19C129.108 213.159 132.882 214.556 136.292 215.045C143.563 216.087 150.433 214.387 155.012 210.121C155.865 211.474 156.962 212.64 158.322 213.454C160.495 214.755 163.109 215.217 165.921 215.048C167.823 214.934 169.459 214.554 170.934 213.801C172.329 213.088 173.508 212.092 174.511 210.984C175.514 209.876 176.382 208.783 176.746 207.074V207.073C176.92 206.253 176.838 206.331 176.854 205.949C176.871 205.567 176.886 205.077 176.901 204.476C176.929 203.273 176.955 201.631 176.976 199.653C177.019 195.697 177.045 190.405 177.045 184.72C177.045 174.41 177.047 169.272 176.961 166.424C176.918 165.001 176.865 164.144 176.716 163.346C176.567 162.549 176.204 161.774 176.037 161.463C174.771 159.096 172.822 157.273 170.355 156.204C168.517 155.409 166.88 155.425 164.981 155.42C163.082 155.415 161.469 155.373 159.608 156.186C157.278 157.204 155.368 158.882 154.126 161.048V161.048L153.223 162.622C152.969 163.064 152.836 163.564 152.834 164.074L152.811 173.483C152.798 178.62 152.679 184.895 152.561 187.146C152.46 189.064 152.372 190.149 152.274 190.72C152.176 191.291 152.145 191.347 151.861 191.902C151.362 192.877 149.464 194.596 148.96 194.807C149.132 194.735 147.618 195.139 146.831 195.213C145.261 195.359 146.125 195.517 144.764 194.851C143.647 194.305 144.004 194.635 143.46 193.681V193.681L142.969 192.822L142.83 179.121C142.779 174.074 142.715 170.356 142.63 167.764C142.588 166.468 142.54 165.456 142.483 164.671C142.426 163.886 142.462 163.529 142.185 162.638C141.636 160.874 140.756 159.922 139.634 158.8C137.047 156.211 133.51 155.159 130.137 155.263L130.136 155.263Z" fill="white"/>
<path d="M51.3354 131.883C50.8799 131.873 50.4217 131.881 49.9635 131.909C45.6087 132.167 41.5747 134.641 39.3691 138.406C38.9432 139.133 38.267 140.7 38.0857 142.222C37.9042 143.743 37.855 145.618 37.7282 149.36C37.5769 153.823 37.5314 167.886 37.6084 181.102C37.732 202.318 37.3844 204.771 38.4896 207.848C39.8839 211.73 42.9295 214.639 46.874 215.844C47.9205 216.163 48.4499 216.159 49.2017 216.209C49.9536 216.259 50.7518 216.274 51.5533 216.242C54.8096 216.11 58.039 214.72 60.2138 212.428C61.2175 211.37 62.9445 209.107 63.3151 206.283C63.6857 203.459 63.6749 199.531 63.8012 191.004C63.8737 186.107 63.9206 183.684 63.9822 180.03C68.6362 185.844 73.6408 192.09 78.277 197.83C81.2996 201.572 84.0253 204.936 86.0769 207.454C88.1285 209.972 89.1903 211.306 89.9504 212.138C92.561 214.996 96.5071 216.503 100.478 216.281C105.388 216.008 109.829 213.01 111.847 208.545V208.545C113.23 205.486 112.744 203.415 112.744 174.097C112.744 158.329 112.746 150.46 112.663 146.232C112.621 144.118 112.572 142.928 112.437 141.899C112.302 140.87 111.879 139.742 111.715 139.388C109.719 135.072 105.393 132.225 100.621 131.913C97.101 131.683 93.5494 132.784 90.9703 135.055C90.3365 135.613 89.557 136.181 88.739 137.321C87.921 138.461 87.4264 139.922 87.1907 141.386C86.7191 144.314 86.7446 148.152 86.609 156.424C86.5288 161.321 86.4777 164.17 86.4138 167.891L85.7324 167.043C77.9172 157.315 71.7651 149.693 67.4241 144.357C65.2536 141.69 63.5369 139.595 62.2839 138.086C61.0308 136.576 60.4851 135.882 59.7583 135.152C57.5911 132.977 54.5245 131.958 51.3358 131.883L51.3354 131.883Z" fill="white"/>
<path d="M200.827 13.1014C196.973 13.0997 193.167 13.1885 191.07 13.407C168.26 15.7842 147.542 25.8101 131.536 42.2166C126.969 46.8983 124.061 50.5306 120.255 56.3062C115.872 62.9579 112.561 69.9075 108.815 80.2554C108.643 80.7294 108.764 80.5077 108.733 80.5308C108.701 80.554 108.194 80.806 107.118 81.1978C100.607 83.5683 95.5896 88.8326 93.4908 95.4789C92.8581 97.4824 92.6569 98.9682 92.6569 101.556C92.6569 105.496 93.1161 107.86 94.4814 110.815C97.5019 117.351 103.61 122.303 110.332 123.516C110.333 123.516 110.334 123.516 110.335 123.516C113.445 124.077 118.262 123.819 121.15 122.854C128.396 120.434 133.935 114.587 135.823 107.318C136.631 104.203 136.647 99.3223 135.826 96.2607C134.383 90.8817 130.173 85.3541 125.455 82.7827C125.146 82.6147 124.925 82.4595 124.692 82.3036C124.817 81.9046 124.989 81.4079 125.222 80.8054C125.726 79.4983 126.447 77.818 127.259 76.0473C128.882 72.5058 130.898 68.5568 132.253 66.4023C136.612 59.475 144.124 51.0932 150.403 46.1427C162.168 36.8669 174.84 31.5174 190.456 29.2572C195.059 28.5909 206.106 28.5844 211.038 29.2585C228.687 31.6707 244.486 39.21 256.869 51.1046C257.383 51.5991 258.007 52.2574 258.607 52.8815C252.889 50.0905 246.551 48.0587 239.838 46.8902C235.224 46.0869 224.397 46.1045 219.767 46.9203C201.844 50.0789 186.561 59.7289 177.163 73.9132C176.548 74.8418 176.169 75.3177 176.047 75.4315C175.925 75.5453 176.145 75.45 175.826 75.5032C170.95 76.3152 167.18 78.2837 163.553 81.8911C161.405 84.0275 160.399 85.371 159.329 87.5535C156.184 93.9693 156.237 100.78 159.457 107.307C161.555 111.557 164.723 114.727 168.973 116.825C172.852 118.741 176.103 119.426 180.283 119.196C185.876 118.888 190.196 116.889 194.374 112.715C197.295 109.797 199.063 106.938 200.165 103.295C201.142 100.06 201.116 94.6234 200.158 91.3353C198.935 87.1345 195.997 82.738 192.607 80.0669C192.294 79.8202 192.363 79.8744 192.187 79.7168C192.423 79.425 192.557 79.2345 193.119 78.6446C193.978 77.743 195.107 76.6319 196.299 75.5103C198.683 73.2672 201.429 70.9178 202.568 70.1603C207.845 66.6522 214.64 63.8888 221.19 62.6024C224.553 61.9421 235.018 61.9367 238.714 62.6234C242.223 63.2752 247.375 64.9016 250.447 66.3197C251.059 66.6023 251.723 66.9367 252.377 67.2734C246.649 67.6483 242.448 69.0797 236.978 72.4863C235.3 73.5311 235.585 73.4356 233.311 73.5879C223.507 74.2448 215.191 81.1634 212.976 90.5737C212.173 93.9874 212.347 99.2156 213.476 102.398C214.696 105.834 216.316 108.386 218.949 111.032C223.107 115.21 227.441 117.124 233.349 117.396C237.68 117.595 240.306 117.049 244.197 115.142C249.417 112.582 253.425 107.875 255.348 102.131C256.071 99.9701 256.253 98.6678 256.25 95.6345C256.244 90.823 255.073 87.0057 252.38 82.9148C252.44 82.9095 252.473 82.9003 252.534 82.8955C253.734 82.7998 255.188 82.8048 255.943 82.9077C259.754 83.4266 261.904 84.5038 265.046 87.5216C268.931 91.2539 271.437 96.4402 272.02 102.018C272.276 104.472 272.477 106.277 272.633 107.507C272.712 108.122 272.778 108.589 272.84 108.949C272.871 109.129 272.898 109.278 272.939 109.441C272.96 109.523 272.981 109.606 273.028 109.732C273.074 109.857 273.045 110.005 273.472 110.433C274.035 110.996 274.113 110.85 274.208 110.881C274.303 110.911 274.347 110.92 274.385 110.928C274.46 110.945 274.498 110.95 274.537 110.956C274.614 110.968 274.68 110.976 274.762 110.986C274.924 111.006 275.134 111.028 275.397 111.055C275.924 111.108 276.659 111.178 277.54 111.259C279.304 111.42 281.65 111.625 284.028 111.826C286.406 112.028 288.814 112.227 290.699 112.375C291.642 112.449 292.453 112.511 293.068 112.554C293.684 112.598 293.99 112.627 294.344 112.627C295.009 112.627 295.543 112.244 295.785 111.972C296.027 111.701 296.115 111.494 296.187 111.318C296.332 110.966 296.382 110.699 296.433 110.395C296.536 109.787 296.589 109.071 296.621 108.202C296.685 106.462 296.644 104.15 296.488 101.612C295.051 78.2781 284.548 55.86 267.439 39.5863C251.871 24.7784 232.268 15.7729 210.504 13.4162C208.453 13.1941 204.681 13.103 200.827 13.1014ZM250.718 83.1583C250.697 83.1633 250.697 83.1633 250.718 83.1583ZM235.005 89.3161C240.238 89.699 242.901 96.2865 238.644 100.125C238.11 100.607 236.983 101.316 236.907 101.348C232.59 103.152 228.18 100.258 228.147 95.6236C228.121 92.1215 230.374 89.6483 233.911 89.3274C234.292 89.2929 234.656 89.2905 235.005 89.3161ZM178.248 91.1043C179.268 90.9978 180.33 91.12 181.101 91.4145C184.246 92.616 185.921 96.0696 184.917 99.4239C184.683 100.205 182.759 102.426 181.554 102.987C180.217 103.61 177.472 103.628 176.351 103.119C175.317 102.65 173.628 100.96 173.158 99.9256C173.012 99.6026 172.797 98.6285 172.761 97.6704C172.724 96.7124 172.852 95.7024 172.996 95.279C173.382 94.1442 174.397 92.8211 175.656 91.9611C176.26 91.549 177.228 91.2109 178.248 91.1043ZM114.797 95.634C117.905 95.6364 120.874 98.6372 120.874 101.859C120.874 104.002 119.339 106.461 117.267 107.494C115.119 108.564 111.829 108.084 110.175 106.519C108.256 104.702 107.706 101.224 108.955 98.9477C110.26 96.5683 111.872 95.6318 114.797 95.634Z" fill="white"/>
<path d="M67.692 234.811C64.91 234.614 60.5445 233.845 58.3593 233.169C57.9463 233.041 56.8843 232.729 55.9993 232.475C55.1143 232.221 54.0732 231.875 53.6857 231.707C53.2982 231.538 52.8155 231.397 52.613 231.393C52.4105 231.389 51.8586 231.199 51.3866 230.971C50.9146 230.743 50.3836 230.55 50.2067 230.542C50.0297 230.534 49.6974 230.386 49.4684 230.213C49.2393 230.04 48.9133 229.898 48.7438 229.898C48.1474 229.898 41.5737 226.648 38.4068 224.787C31.4376 220.692 23.5352 214.067 18.8832 208.419C17.9983 207.345 16.9683 206.109 16.5946 205.673C14.8897 203.687 11.3447 198.364 9.71443 195.344C7.88606 191.956 5.80174 187.59 5.78923 187.122C5.78518 186.981 5.64063 186.679 5.46739 186.449C5.29414 186.22 5.15181 185.882 5.15108 185.698C5.15035 185.514 5.02416 185.122 4.87061 184.827C4.58449 184.277 3.37344 180.533 2.61428 177.852C1.93454 175.451 1.79213 174.791 0.900277 169.911C0.235205 166.272 -0.00614942 162.848 0.000118643 157.141C0.00336214 153.895 0.10701 150.62 0.229711 149.863C0.352413 149.107 0.536925 147.658 0.639752 146.644C0.742587 145.63 0.939417 144.221 1.07716 143.512C1.53505 141.158 2.15468 138.375 2.46278 137.288C3.59784 133.286 3.72434 132.888 4.71605 130.206C5.83151 127.188 6.05545 126.664 7.74268 123.123C8.94542 120.599 11.6362 115.838 12.8072 114.163C13.199 113.602 13.8719 112.636 14.3025 112.017C17.7103 107.112 23.0601 101.304 27.9822 97.1664C29.7282 95.6986 33.7698 92.6989 35.2958 91.738C38.2006 89.9092 41.9894 87.7737 44.3067 86.6593C45.7227 85.9783 47.1375 85.2844 47.4507 85.1172C47.7639 84.95 48.1312 84.8133 48.267 84.8133C48.4028 84.8133 48.9189 84.6372 49.4139 84.422C50.9896 83.7369 51.9698 83.3845 54.4975 82.594C58.1356 81.4563 58.9796 81.2227 60.3563 80.9722C61.0416 80.8475 61.6917 80.6901 61.8011 80.6225C62.0048 80.4966 64.8846 79.9954 67.3702 79.6534C73.4898 78.8112 79.6796 78.5735 83.7828 79.023C84.8448 79.1394 86.7274 79.3348 87.9664 79.4572C89.2054 79.5797 90.7984 79.8128 91.5064 79.9753C92.2143 80.1377 93.3448 80.3334 94.0184 80.4101L95.2431 80.5495L95.5778 79.7483C95.7618 79.3077 96.05 78.4079 96.2183 77.7487C96.6992 75.8647 97.6996 72.6553 98.0638 71.8286C98.2818 71.3338 98.8405 69.7634 99.1328 68.8239C99.3211 68.2189 99.6338 67.499 100.329 66.0701C100.491 65.7359 100.624 65.3772 100.624 65.273C100.624 65.0557 102.701 60.6051 103.624 58.844C103.965 58.1948 104.541 57.0841 104.905 56.3758C105.27 55.6676 105.756 54.7984 105.986 54.4442C106.215 54.0901 106.551 53.5106 106.732 53.1565C106.912 52.8024 107.229 52.2556 107.436 51.9414C107.643 51.6272 108.094 50.9058 108.438 50.3382C112.003 44.4691 118.187 36.7281 123.496 31.4901C125.524 29.4892 128.28 26.9151 129.251 26.1141C129.824 25.642 130.641 24.9607 131.066 24.6003C134.125 22.011 137.989 19.2239 142.461 16.3814C143.11 15.9688 143.902 15.4547 144.222 15.2389C144.542 15.0231 144.867 14.8465 144.945 14.8465C145.023 14.8465 145.63 14.52 146.294 14.1209C146.959 13.7218 148.275 12.9828 149.219 12.4785C150.163 11.9743 151.08 11.4809 151.257 11.3821C151.878 11.0356 156.299 9.01179 157.58 8.48825C158.291 8.19737 159.066 7.86973 159.302 7.76016C159.538 7.6506 160.118 7.42457 160.59 7.25788C161.062 7.09119 162.413 6.5975 163.593 6.1608C164.773 5.7241 166.113 5.27509 166.571 5.16301C167.029 5.05092 167.582 4.86327 167.801 4.74601C168.02 4.62875 168.611 4.44209 169.115 4.3312C169.618 4.22032 170.754 3.92236 171.639 3.66908C176.851 2.17734 183.738 0.968329 190.534 0.35211C194.038 0.0343547 205.946 -0.132799 206.37 0.129801C206.461 0.185853 207.831 0.332822 209.415 0.4564C213.242 0.754986 218.992 1.62826 222.485 2.4414C223.016 2.56499 224.03 2.79076 224.738 2.9431C226.863 3.40037 232.215 4.93113 234.734 5.80215C236.173 6.29979 240.659 8.06485 242.009 8.66424C242.54 8.90007 243.264 9.22167 243.618 9.37892C244.458 9.75213 250.817 12.8863 251.234 13.133C251.411 13.2376 252.522 13.8766 253.702 14.5531C254.882 15.2296 256.088 15.9468 256.383 16.147C256.678 16.3471 258.03 17.2482 259.387 18.1493C262.256 20.0549 264.758 21.8227 264.943 22.0754C265.014 22.1726 265.459 22.5175 265.931 22.8417C266.403 23.166 267.089 23.6969 267.456 24.0216C267.823 24.3462 268.591 24.9981 269.164 25.4703C272.123 27.9129 278.117 33.8365 280.782 36.9526C282.267 38.6898 285.822 43.1853 287.654 45.6447C288.398 46.6435 291.755 51.941 292.89 53.9077C294.459 56.6274 296.386 60.381 297.463 62.8145C297.776 63.5228 298.174 64.4147 298.346 64.7966C299.366 67.054 300.55 70.1092 301.319 72.4725C301.626 73.4168 301.972 74.3572 302.087 74.5621C302.202 74.7671 302.294 75.0569 302.293 75.206C302.29 75.4458 302.705 76.9258 303.421 79.2331C303.549 79.6462 303.777 80.5155 303.926 81.1647C304.075 81.8139 304.291 82.7314 304.405 83.2036C305.135 86.2284 306.158 91.8729 306.158 92.8745C306.158 93.3396 306.303 94.4811 306.481 95.4112C306.676 96.4274 306.861 99.1495 306.945 102.232C307.04 105.723 307.168 107.475 307.346 107.718C307.59 108.052 307.742 108.052 309.618 107.715C318.188 106.177 325.897 106.396 335.228 108.442C337.504 108.941 339.88 109.617 340.867 110.047C341.255 110.215 341.687 110.353 341.828 110.353C342.687 110.353 351.868 114.614 353.736 115.88C354.128 116.145 354.494 116.363 354.549 116.363C354.604 116.363 355.131 116.701 355.719 117.114C356.308 117.527 357.297 118.217 357.916 118.646C361.693 121.265 367.672 126.791 370.141 129.944C370.808 130.796 371.529 131.69 371.742 131.931C372.441 132.719 375.709 137.541 376.173 138.469C376.261 138.646 376.562 139.177 376.841 139.649C377.49 140.751 378.928 143.632 379.518 145.015C379.77 145.605 380.081 146.274 380.209 146.502C380.337 146.73 380.522 147.165 380.62 147.468C380.717 147.771 381.049 148.696 381.357 149.522C382.909 153.689 383.803 157.509 384.724 163.902C385.096 166.482 385.091 175.656 384.716 178.603C384.37 181.319 383.537 185.665 382.968 187.725C382.227 190.403 381.37 193.145 381.023 193.949C380.921 194.185 380.586 195.006 380.279 195.773C378.089 201.233 374.388 207.412 370.451 212.175C367.711 215.49 363.47 219.644 360.684 221.742C360.292 222.037 359.828 222.413 359.652 222.578C359.477 222.742 359.027 223.086 358.652 223.342C358.277 223.597 357.487 224.145 356.897 224.558C356.307 224.972 355.68 225.377 355.503 225.459C355.326 225.541 354.602 225.988 353.894 226.452C350.698 228.547 343.275 231.863 339.19 233.02C335.26 234.134 332.95 234.593 330.079 234.829C327.181 235.068 71.0618 235.051 67.692 234.811ZM145.142 212.162C149.132 211.404 152.616 209.244 155.001 206.048L155.902 204.841L156.171 206.144C156.516 207.814 157.008 208.763 158.123 209.913C160.486 212.348 165.267 213.118 169.065 211.674C170.562 211.105 172.294 209.754 173.114 208.516C174.477 206.456 174.428 207.334 174.428 185.335C174.428 171.66 174.353 164.971 174.193 164.223C173.882 162.773 172.44 160.672 171.154 159.797C169.227 158.486 167.967 158.137 165.095 158.121C163.117 158.11 162.247 158.2 161.34 158.507C158.884 159.341 157.223 160.772 156.213 162.926L155.655 164.116L155.536 177.208C155.422 189.721 155.397 190.359 154.971 191.634C154.338 193.527 153.594 194.696 152.229 195.944C150.589 197.444 149.124 197.983 146.639 198.002C144.935 198.015 144.554 197.944 143.472 197.415C142.138 196.761 141.456 196.012 140.697 194.366L140.208 193.305L140.098 179.032C139.978 163.465 140.016 163.939 138.715 161.877C135.479 156.748 125.579 156.708 122.333 161.81C120.952 163.981 120.971 163.694 121.063 180.366C121.143 194.946 121.161 195.521 121.615 197.536C122.7 202.352 124.081 205.121 126.696 207.72C128.137 209.152 128.828 209.651 130.472 210.449C134.61 212.459 140.163 213.107 145.142 212.162ZM216.478 212.271C222.251 211.624 229.063 208.9 230.711 206.581C231.084 206.055 231.554 205.171 231.756 204.616C232.218 203.341 232.257 200.307 231.828 198.881C231.345 197.276 230.156 195.714 228.895 195.028C227.897 194.484 227.655 194.442 226.056 194.528C224.559 194.61 223.971 194.77 221.949 195.65C216.044 198.217 214.674 198.552 211.696 198.151C207.348 197.566 204.632 194.986 203.349 190.223C202.76 188.038 202.7 182.722 203.238 180.34C204.516 174.678 208.135 171.925 213.904 172.228C216.187 172.348 217.279 172.679 220.794 174.313C224.761 176.157 227.269 176.446 229.247 175.286C231.198 174.142 232.202 171.895 232.223 168.623C232.24 166.008 231.764 164.733 230.237 163.304C226.632 159.931 217.806 157.495 210.491 157.854C197.236 158.505 187.702 165.423 184.407 176.779C182.046 184.915 183.253 194.96 187.352 201.293C188.571 203.175 191.184 205.95 193.062 207.357C198.802 211.658 206.86 213.348 216.478 212.271ZM330.15 212.274C334.102 211.829 338.665 210.428 341.715 208.722C343.659 207.634 344.368 206.961 345.108 205.5C345.653 204.423 345.751 203.963 345.814 202.173C345.936 198.723 344.92 196.37 342.763 195.106C341.733 194.502 341.551 194.467 339.841 194.541C338.228 194.611 337.745 194.739 335.657 195.648C329.792 198.202 328.375 198.551 325.459 198.158C320.946 197.551 318.048 194.687 316.955 189.756C316.473 187.58 316.471 182.51 316.953 180.34C318.204 174.696 321.832 171.933 327.612 172.223C329.828 172.334 331.34 172.804 334.982 174.51C340.498 177.095 343.953 176.222 345.54 171.843C346.146 170.172 346.096 166.819 345.443 165.358C344.237 162.654 340.364 160.409 334.263 158.878C324.2 156.351 313.703 158.329 306.372 164.132C301.828 167.73 298.741 173.069 297.433 179.596C296.892 182.29 296.894 189.091 297.436 191.795C298.515 197.18 300.441 201.111 303.69 204.554C309.737 210.962 318.664 213.566 330.15 212.274ZM54.2626 211.839C56.632 211.024 58.4708 209.044 59.5123 206.184C59.6727 205.744 59.7826 199.67 59.8579 187.095L59.9684 168.651L75.9492 188.597C84.7386 199.567 92.4418 209.087 93.0673 209.751C94.4251 211.194 96.0215 211.981 98.2275 212.293C103.316 213.015 107.654 210.102 108.676 205.276C109.145 203.064 109.137 144.798 108.668 142.808C107.783 139.054 105.001 136.483 101.13 135.841C97.5571 135.249 93.5951 136.978 91.9399 139.851C90.5866 142.201 90.6586 141.11 90.5409 161.066L90.4337 179.264L73.9583 158.771C64.8969 147.499 57.1733 138.015 56.7948 137.695C55.7654 136.824 54.0082 136.091 52.3203 135.83C47.3644 135.063 42.8798 138.109 41.8644 142.933C41.5441 144.454 41.5247 203.341 41.8439 205.025C42.7447 209.776 46.7696 212.767 51.7085 212.354C52.4755 212.29 53.6248 212.059 54.2626 211.839ZM252.424 211.849C254.937 211.076 257.059 209.12 257.826 206.87C258.182 205.824 258.211 203.792 258.269 174.954C258.312 153.459 258.261 143.743 258.098 142.79C257.439 138.94 254.673 136.462 250.349 135.851C245.801 135.207 241.58 137.181 239.928 140.722L239.327 142.01L239.27 173.541C239.219 201.485 239.251 205.22 239.547 206.378C240.135 208.684 241.436 210.192 243.833 211.347C246.321 212.546 249.544 212.735 252.424 211.849ZM282.122 211.945C285.477 211.003 287.523 208.891 288.128 205.746C288.305 204.823 288.356 198.859 288.309 184.398C288.236 162.153 288.333 163.64 286.82 161.532C283.168 156.446 273 157.021 270.24 162.469C269.259 164.406 269.233 165.06 269.3 186.115L269.363 205.967L269.853 207.179C271.543 211.361 276.856 213.424 282.122 211.945ZM281.771 150.169C284.898 149.507 287.212 147.8 288.471 145.229C289.062 144.022 289.101 143.781 289.101 141.366C289.101 138.977 289.056 138.693 288.479 137.442C287.384 135.07 285.079 133.306 282.066 132.534C280.177 132.049 276.058 132.221 274.298 132.857C271.452 133.885 269.418 135.966 268.713 138.571C268.183 140.531 268.356 143.49 269.098 145.149C270.941 149.269 276.197 151.351 281.771 150.169ZM118.579 121.846C122.797 120.948 126.474 118.893 129.337 115.831C131.755 113.245 133.341 110.382 134.241 106.977C134.934 104.355 135.028 100.059 134.448 97.5074C133.133 91.7167 129.037 86.3422 124.063 83.8821C123.326 83.5172 122.723 83.1353 122.723 83.0333C122.723 82.9313 123.205 81.5592 123.795 79.9843C128.104 68.483 134.291 59.0051 143.132 50.3624C152.948 40.7673 164.51 34.033 177.753 30.1978C190.742 26.4361 204.302 25.9297 217.765 28.7035C233.886 32.0247 249.021 40.3757 260.303 52.1745C262.463 54.4337 266.252 58.8683 266.252 59.1373C266.252 59.2034 265.215 58.5803 263.946 57.7526C256.172 52.6796 246.696 49.3268 236.936 48.196C232.769 47.7132 224.175 47.8808 220.249 48.5213C202.48 51.4204 187.283 61.1514 177.967 75.5952L177.06 77.0009L175.455 77.2504C168.3 78.3633 161.879 83.9362 159.614 90.9988C155.88 102.642 162.934 114.802 174.855 117.27C177.558 117.829 181.886 117.711 184.297 117.013C190.645 115.174 195.838 110.443 198.014 104.515C199.017 101.785 199.192 100.696 199.185 97.2613C199.177 93.4225 198.818 91.7161 197.396 88.7396C195.841 85.4855 193.402 82.4971 190.891 80.7699L189.869 80.0668L190.872 78.7378C192.449 76.6501 197.275 71.951 199.669 70.1738C215.87 58.1431 237.889 56.8557 255.236 66.9248C258.848 69.0213 258.847 68.8658 255.256 68.7577C248.895 68.5663 243.13 70.2801 237.76 73.9589C236.028 75.1457 236.001 75.1553 234.427 75.1553C226.843 75.1553 219.572 79.6527 216.212 86.4229C214.714 89.4399 214.075 92.1633 214.076 95.5208C214.08 101.33 216.17 106.227 220.37 110.26C222.298 112.111 223.49 112.938 225.774 114.008C228.845 115.448 230.673 115.824 234.5 115.804C237.188 115.791 238.145 115.7 239.495 115.331C241.632 114.746 244.473 113.414 246.159 112.205C247.677 111.117 250.198 108.56 251.189 107.104C252.719 104.854 253.983 101.777 254.466 99.1244C254.781 97.398 254.777 93.585 254.46 91.9795C253.839 88.8366 252.429 85.6324 250.604 83.2202C249.922 82.3191 249.621 81.7602 249.789 81.7041C253.72 80.3872 258.61 81.0496 262.718 83.4555C264.744 84.6417 268.087 87.8761 269.446 89.9642C272.423 94.5396 274.006 99.8954 274.058 105.574C274.076 107.605 274.159 108.443 274.348 108.517C274.494 108.574 274.556 108.768 274.487 108.948C274.417 109.129 274.492 109.321 274.651 109.376C274.811 109.431 278.852 109.769 283.631 110.128C288.41 110.486 292.861 110.836 293.523 110.906L294.727 111.032L294.905 109.995C295.002 109.425 295.06 107.461 295.033 105.632C294.874 95.0043 292.675 84.0454 288.648 73.8226C281.473 55.6062 268.063 39.495 251.486 29.1742C238.022 20.7911 224.004 16.1723 207.955 14.8312C204.024 14.5027 194.005 14.6837 190.089 15.1538C169.41 17.6371 151.18 26.0141 136 40.0086C124.842 50.2952 116.086 63.9435 111.123 78.781L110.089 81.8741L108.069 82.5506C101.755 84.6658 96.9198 89.7222 94.9123 96.3088C94.3777 98.0626 94.3272 98.5308 94.3241 101.768C94.3201 105.855 94.6488 107.454 96.1297 110.553C98.8534 116.252 104.181 120.516 110.186 121.804C112.149 122.225 116.693 122.248 118.579 121.846ZM112.175 109.526C110.56 108.991 109.609 108.379 108.589 107.22C105.663 103.895 105.858 99.0339 109.037 96.0593C112.702 92.6301 118.513 93.3113 121.211 97.4865C123.873 101.608 122.329 107.021 117.899 109.095C116.082 109.946 113.93 110.108 112.175 109.526ZM177.109 105.127C174.681 104.497 172.798 102.97 171.705 100.742C171.166 99.6452 171.102 99.2865 171.102 97.3653C171.102 95.3742 171.154 95.1113 171.799 93.7978C172.626 92.1168 173.971 90.7985 175.677 89.9986C176.728 89.5059 177.174 89.4276 178.933 89.4276C180.695 89.4276 181.137 89.5055 182.198 90.0028C186.338 91.944 188.055 96.6358 186.149 100.8C184.666 104.042 180.54 106.016 177.109 105.127ZM233.024 103.455C228.497 102.716 225.402 97.8688 226.66 93.4899C228.506 87.0661 236.739 85.4586 240.779 90.7333C241.711 91.9501 242.438 94.059 242.438 95.5444C242.438 100.423 237.886 104.248 233.024 103.455Z" fill="#0B97BF"/>
</svg>
